<svg width="220" height="65" viewBox="0 0 220 65" fill="none" xmlns="http://www.w3.org/2000/svg">
<path d="M139.025 24.4025H142.985C143.359 24.4025 143.699 24.2993 144.005 24.0919C144.31 23.8855 144.561 23.5652 144.759 23.1313C144.955 22.6984 145.054 22.1756 145.054 21.5648C145.054 20.895 144.946 20.3486 144.729 19.9246C144.511 19.501 144.231 19.1904 143.887 18.9934C143.541 18.7969 143.182 18.6981 142.807 18.6981H139.025V24.4025ZM134.177 35.4275V14.4418H143.133C144.138 14.4418 145.054 14.6487 145.881 15.0624C146.709 15.4761 147.433 16.0186 148.054 16.6884C148.675 17.3581 149.152 18.1168 149.488 18.9639C149.823 19.8115 149.99 20.6783 149.99 21.5648C149.99 22.747 149.709 23.8855 149.148 24.9789C148.586 26.0727 147.808 26.9591 146.813 27.6392C145.817 28.3187 144.65 28.6588 143.31 28.6588H139.025V35.4275H134.177Z" fill="white"/>
<path d="M154.159 35.4275V14.4423H158.977V22.5407H160.662L166.514 14.4423H171.864L164.356 24.6093L172.485 35.4275H166.632L160.514 26.9449H158.977V35.4275H154.159Z" fill="white"/>
<path d="M176.618 35.4275V14.4423H181.496V28.5408L190.51 14.4423H195.061V35.4275H190.185V21.4174L181.259 35.4275H176.618Z" fill="white"/>
<path d="M94.6033 53.824H98.5638C98.9382 53.824 99.2778 53.7208 99.5839 53.5134C99.8885 53.3066 100.14 52.9867 100.337 52.5528C100.534 52.1199 100.632 51.5971 100.632 50.9863C100.632 50.3165 100.524 49.7696 100.307 49.3456C100.09 48.9225 99.8099 48.612 99.4655 48.4149C99.12 48.2179 98.7603 48.1191 98.3864 48.1191H94.6033V53.824ZM89.7559 64.849V43.8633H98.7112C99.7166 43.8633 100.632 44.0697 101.46 44.4839C102.288 44.8976 103.012 45.4401 103.633 46.1094C104.253 46.7796 104.731 47.5383 105.066 48.3849C105.401 49.2331 105.569 50.0998 105.569 50.9863C105.569 52.1685 105.288 53.3066 104.727 54.4004C104.164 55.4937 103.386 56.3801 102.392 57.0607C101.396 57.7403 100.229 58.0798 98.8891 58.0798H94.6033V64.849H89.7559Z" fill="white"/>
<path d="M113.337 54.3562C113.337 55.1645 113.46 55.9478 113.706 56.706C113.952 57.4651 114.307 58.1398 114.77 58.7309C115.233 59.322 115.804 59.7952 116.485 60.1495C117.165 60.5043 117.967 60.6812 118.894 60.6812C119.8 60.6812 120.598 60.4994 121.288 60.1348C121.977 59.7707 122.549 59.2778 123.002 58.6567C123.455 58.0361 123.795 57.3516 124.022 56.6028C124.248 55.8539 124.362 55.0854 124.362 54.2967C124.362 53.4894 124.238 52.7111 123.992 51.9622C123.746 51.2133 123.391 50.5387 122.928 49.9377C122.465 49.3368 121.888 48.869 121.199 48.5334C120.509 48.1992 119.731 48.0307 118.864 48.0307C117.937 48.0307 117.13 48.2086 116.44 48.5629C115.751 48.9181 115.179 49.4011 114.726 50.0114C114.273 50.6222 113.928 51.2969 113.692 52.0359C113.455 52.7749 113.337 53.5484 113.337 54.3562ZM118.805 64.9969C117.268 64.9969 115.864 64.6967 114.593 64.0953C113.322 63.4948 112.223 62.687 111.297 61.6718C110.371 60.6566 109.662 59.5142 109.169 58.243C108.677 56.9723 108.431 55.6569 108.431 54.2967C108.431 52.8983 108.691 51.5681 109.213 50.3068C109.736 49.0464 110.464 47.9182 111.401 46.9231C112.337 45.9281 113.445 45.1444 114.726 44.5729C116.007 44.0019 117.405 43.7159 118.924 43.7159C120.479 43.7159 121.894 44.0162 123.165 44.6171C124.435 45.2186 125.529 46.0313 126.446 47.0558C127.361 48.0808 128.066 49.2282 128.559 50.4989C129.051 51.7701 129.298 53.0663 129.298 54.3857C129.298 55.7856 129.041 57.1153 128.529 58.3756C128.017 59.6375 127.288 60.7657 126.342 61.7603C125.396 62.7558 124.288 63.5439 123.017 64.1248C121.745 64.7061 120.342 64.9969 118.805 64.9969Z" fill="white"/>
<path d="M132.376 54.1493C132.376 52.888 132.608 51.6418 133.071 50.4099C133.534 49.179 134.224 48.0558 135.14 47.0411C136.056 46.0259 137.165 45.2186 138.465 44.6171C139.766 44.0157 141.234 43.7154 142.869 43.7154C144.839 43.7154 146.549 44.1395 147.997 44.9866C149.445 45.8342 150.534 46.9369 151.264 48.297L147.51 50.9279C147.214 50.1785 146.805 49.5928 146.283 49.1687C145.761 48.7457 145.19 48.4494 144.569 48.2818C143.948 48.1147 143.342 48.0307 142.751 48.0307C141.845 48.0307 141.046 48.213 140.356 48.5776C139.667 48.9427 139.096 49.4301 138.642 50.0409C138.189 50.6517 137.849 51.3318 137.623 52.0801C137.396 52.8295 137.283 53.5685 137.283 54.2967C137.283 55.1444 137.416 55.9522 137.682 56.7207C137.948 57.4892 138.322 58.1688 138.805 58.7599C139.288 59.351 139.869 59.8193 140.549 60.1643C141.229 60.5092 141.992 60.6807 142.84 60.6807C143.431 60.6807 144.032 60.5878 144.643 60.4006C145.253 60.2134 145.82 59.9028 146.342 59.4699C146.864 59.0361 147.263 58.4646 147.539 57.755L151.529 60.1195C151.096 61.1446 150.406 62.0217 149.461 62.7504C148.515 63.4796 147.45 64.0363 146.268 64.4206C145.086 64.8048 143.904 64.9969 142.721 64.9969C141.204 64.9969 139.815 64.6864 138.554 64.0658C137.293 63.4447 136.199 62.6177 135.273 61.5824C134.346 60.548 133.632 59.3859 133.13 58.0951C132.628 56.8042 132.376 55.4893 132.376 54.1493Z" fill="white"/>
<path d="M153.889 54.1493C153.889 52.888 154.121 51.6418 154.583 50.4099C155.046 49.179 155.736 48.0558 156.653 47.0411C157.569 46.0259 158.678 45.2186 159.978 44.6171C161.278 44.0157 162.746 43.7154 164.382 43.7154C166.352 43.7154 168.062 44.1395 169.51 44.9866C170.958 45.8342 172.047 46.9369 172.777 48.297L169.023 50.9279C168.727 50.1785 168.317 49.5928 167.796 49.1687C167.274 48.7457 166.702 48.4494 166.081 48.2818C165.461 48.1147 164.855 48.0307 164.264 48.0307C163.357 48.0307 162.559 48.213 161.87 48.5776C161.18 48.9427 160.608 49.4301 160.155 50.0409C159.702 50.6517 159.362 51.3318 159.136 52.0801C158.909 52.8295 158.796 53.5685 158.796 54.2967C158.796 55.1444 158.929 55.9522 159.195 56.7207C159.46 57.4892 159.835 58.1688 160.318 58.7599C160.8 59.351 161.382 59.8193 162.062 60.1643C162.741 60.5092 163.504 60.6807 164.353 60.6807C164.944 60.6807 165.545 60.5878 166.155 60.4006C166.766 60.2134 167.332 59.9028 167.855 59.4699C168.376 59.0361 168.775 58.4646 169.052 57.755L173.043 60.1195C172.609 61.1446 171.919 62.0217 170.974 62.7504C170.027 63.4796 168.964 64.0363 167.781 64.4206C166.599 64.8048 165.417 64.9969 164.235 64.9969C162.717 64.9969 161.328 64.6864 160.066 64.0658C158.805 63.4447 157.712 62.6177 156.786 61.5824C155.86 60.548 155.146 59.3859 154.642 58.0951C154.141 56.8042 153.889 55.4893 153.889 54.1493Z" fill="white"/>
<path d="M177.032 64.8489V43.8632H181.909V57.9622L190.923 43.8632H195.475V64.8489H190.599V50.8388L181.672 64.8489H177.032Z" fill="white"/>
<path d="M201.211 64.8489V43.8632H206.088V57.9622L215.103 43.8632H219.654V64.8489H214.778V50.8388L205.851 64.8489H201.211Z" fill="white"/>
<path d="M89.8369 35.429V14.4437H107.305V35.429H102.458V18.6996H94.6843V35.429H89.8369Z" fill="white"/>
<path d="M123.267 27.419L120.815 19.3202L118.348 27.419H123.267ZM118.184 14.4437H123.386L130.658 35.429H125.692L124.269 30.7294H117.34L115.908 35.429H110.943L118.184 14.4437Z" fill="white"/>
<path fill-rule="evenodd" clip-rule="evenodd" d="M21.0136 0H-0.00585938V11.834L37.6968 49.5364V16.6835L21.0136 0ZM26.7849 0L37.6968 10.9124V0H26.7849ZM41.778 0V30.1537L64.9941 6.93725V0H41.778ZM64.9941 12.7086L41.778 35.9248V53.6176L53.1604 65H64.9941V12.7086ZM47.3893 65L24.2894 41.9003H-0.00585938V65H47.3893ZM-0.00585938 37.8191H20.2081L-0.00585938 17.6051V37.8191Z" fill="#39B462"/>
</svg>
