<svg width="208" height="46" viewBox="0 0 208 46" fill="none" xmlns="http://www.w3.org/2000/svg">
<path fill-rule="evenodd" clip-rule="evenodd" d="M0 9.64657V2H13.5817L24.3616 12.78V34.0079L0 9.64657ZM34.3534 43.9997H41.9997L41.9997 10.2117L26.9986 25.2128V36.645L34.3534 43.9997Z" fill="#0094CC"/>
<path fill-rule="evenodd" clip-rule="evenodd" d="M42.0007 6.48268L26.9998 21.4838V2H42.0007V6.48268ZM24.3608 9.04921L17.312 2H24.3608V9.04921Z" fill="#E4E4E4"/>
<path fill-rule="evenodd" clip-rule="evenodd" d="M30.6596 44.0002L30.6598 44.0003H0V29.0743H15.6984L30.6244 44.0002H30.6596ZM0 26.4372H13.0613L0 13.376V26.4372Z" fill="#D21A0A"/>
<path d="M196.144 30.4951H199.358V38.1717H199.469L204.712 30.4951H207.484V43.8185H204.263V36.1289H204.179L198.87 43.8185H196.144V30.4951Z" fill="white"/>
<path d="M182.78 30.4951H185.994V38.1717H186.105L191.348 30.4951H194.119V43.8185H190.899V36.1289H190.815L185.506 43.8185H182.78V30.4951Z" fill="white"/>
<path d="M180.938 35.3218H177.685C177.642 34.9878 177.553 34.6864 177.418 34.4175C177.284 34.1486 177.106 33.9188 176.885 33.7279C176.664 33.5371 176.401 33.3918 176.098 33.2921C175.798 33.188 175.466 33.1359 175.102 33.1359C174.456 33.1359 173.899 33.2942 173.43 33.6108C172.966 33.9274 172.608 34.385 172.357 34.9835C172.11 35.582 171.986 36.3063 171.986 37.1564C171.986 38.0411 172.112 38.7828 172.363 39.3813C172.619 39.9754 172.977 40.4243 173.437 40.7279C173.901 41.0272 174.449 41.1768 175.083 41.1768C175.438 41.1768 175.761 41.1313 176.052 41.0402C176.347 40.9491 176.605 40.8168 176.826 40.6434C177.052 40.4655 177.236 40.2509 177.379 39.9993C177.527 39.7434 177.629 39.455 177.685 39.1341L180.938 39.1536C180.881 39.7434 180.71 40.3246 180.424 40.8971C180.142 41.4696 179.754 41.9922 179.259 42.4649C178.765 42.9333 178.162 43.3063 177.451 43.5839C176.744 43.8614 175.933 44.0002 175.018 44.0002C173.812 44.0002 172.732 43.7357 171.778 43.2066C170.828 42.6731 170.078 41.8968 169.527 40.8776C168.976 39.8583 168.701 38.618 168.701 37.1564C168.701 35.6904 168.98 34.4479 169.54 33.4287C170.099 32.4095 170.856 31.6353 171.81 31.1062C172.765 30.5771 173.834 30.3125 175.018 30.3125C175.824 30.3125 176.57 30.4253 177.256 30.6508C177.941 30.872 178.544 31.1973 179.064 31.6266C179.585 32.0517 180.007 32.5743 180.333 33.1945C180.658 33.8147 180.86 34.5238 180.938 35.3218Z" fill="white"/>
<path d="M167.001 35.3218H163.748C163.705 34.9878 163.616 34.6864 163.482 34.4175C163.347 34.1486 163.169 33.9188 162.948 33.7279C162.727 33.5371 162.465 33.3918 162.161 33.2921C161.862 33.188 161.53 33.1359 161.166 33.1359C160.519 33.1359 159.962 33.2942 159.494 33.6108C159.03 33.9274 158.672 34.385 158.42 34.9835C158.173 35.582 158.049 36.3063 158.049 37.1564C158.049 38.0411 158.175 38.7828 158.427 39.3813C158.683 39.9754 159.04 40.4243 159.5 40.7279C159.964 41.0272 160.513 41.1768 161.146 41.1768C161.502 41.1768 161.825 41.1313 162.115 41.0402C162.41 40.9491 162.668 40.8168 162.89 40.6434C163.115 40.4655 163.299 40.2509 163.443 39.9993C163.59 39.7434 163.692 39.455 163.748 39.1341L167.001 39.1536C166.945 39.7434 166.773 40.3246 166.487 40.8971C166.205 41.4696 165.817 41.9922 165.323 42.4649C164.828 42.9333 164.225 43.3063 163.514 43.5839C162.807 43.8614 161.996 44.0002 161.081 44.0002C159.875 44.0002 158.795 43.7357 157.841 43.2066C156.891 42.6731 156.141 41.8968 155.59 40.8776C155.04 39.8583 154.764 38.618 154.764 37.1564C154.764 35.6904 155.044 34.4479 155.603 33.4287C156.163 32.4095 156.92 31.6353 157.874 31.1062C158.828 30.5771 159.897 30.3125 161.081 30.3125C161.888 30.3125 162.634 30.4253 163.319 30.6508C164.004 30.872 164.607 31.1973 165.128 31.6266C165.648 32.0517 166.071 32.5743 166.396 33.1945C166.721 33.8147 166.923 34.5238 167.001 35.3218Z" fill="white"/>
<path d="M153.027 37.1564C153.027 38.6223 152.745 39.8649 152.181 40.8841C151.617 41.9033 150.854 42.6774 149.891 43.2066C148.933 43.7357 147.857 44.0002 146.665 44.0002C145.468 44.0002 144.39 43.7335 143.431 43.2C142.473 42.6666 141.712 41.8924 141.148 40.8776C140.588 39.8583 140.309 38.618 140.309 37.1564C140.309 35.6904 140.588 34.4479 141.148 33.4287C141.712 32.4095 142.473 31.6353 143.431 31.1062C144.39 30.5771 145.468 30.3125 146.665 30.3125C147.857 30.3125 148.933 30.5771 149.891 31.1062C150.854 31.6353 151.617 32.4095 152.181 33.4287C152.745 34.4479 153.027 35.6904 153.027 37.1564ZM149.735 37.1564C149.735 36.289 149.612 35.556 149.364 34.9575C149.121 34.359 148.77 33.9057 148.31 33.5978C147.855 33.2899 147.306 33.1359 146.665 33.1359C146.027 33.1359 145.478 33.2899 145.019 33.5978C144.559 33.9057 144.205 34.359 143.958 34.9575C143.715 35.556 143.594 36.289 143.594 37.1564C143.594 38.0238 143.715 38.7567 143.958 39.3553C144.205 39.9538 144.559 40.407 145.019 40.7149C145.478 41.0228 146.027 41.1768 146.665 41.1768C147.306 41.1768 147.855 41.0228 148.31 40.7149C148.77 40.407 149.121 39.9538 149.364 39.3553C149.612 38.7567 149.735 38.0238 149.735 37.1564Z" fill="white"/>
<path d="M128.501 43.8185V30.4951H134.005C135.002 30.4951 135.863 30.6903 136.587 31.0806C137.316 31.4666 137.878 32.0066 138.272 32.7005C138.667 33.3901 138.864 34.1925 138.864 35.1076C138.864 36.027 138.663 36.8315 138.259 37.5211C137.86 38.2064 137.29 38.7377 136.548 39.115C135.807 39.4923 134.926 39.681 133.907 39.681H130.511V37.1438H133.309C133.794 37.1438 134.2 37.0592 134.525 36.8901C134.855 36.721 135.104 36.4846 135.273 36.181C135.442 35.8731 135.527 35.5153 135.527 35.1076C135.527 34.6955 135.442 34.3399 135.273 34.0407C135.104 33.7371 134.855 33.5029 134.525 33.3381C134.196 33.1732 133.79 33.0908 133.309 33.0908H131.721V43.8185H128.501Z" fill="white"/>
<path d="M111.201 30.4951H114.415V38.1717H114.526L119.769 30.4951H122.54V43.8185H119.32V36.1289H119.236L113.927 43.8185H111.201V30.4951Z" fill="white"/>
<path d="M106.011 43.8185L101.821 38.2888H101.093V43.8185H97.8726V30.4951H101.093V35.6671H101.607L105.731 30.4951H109.758L104.625 36.786L110.025 43.8185H106.011Z" fill="white"/>
<path d="M85.9219 43.8185V30.4951H91.4256C92.4231 30.4951 93.284 30.6903 94.0083 31.0806C94.7369 31.4666 95.2986 32.0066 95.6933 32.7005C96.0879 33.3901 96.2853 34.1925 96.2853 35.1076C96.2853 36.027 96.0836 36.8315 95.6802 37.5211C95.2812 38.2064 94.7109 38.7377 93.9693 39.115C93.2276 39.4923 92.3472 39.681 91.328 39.681H87.9321V37.1438H90.7295C91.2152 37.1438 91.6208 37.0592 91.946 36.8901C92.2757 36.721 92.525 36.4846 92.6942 36.181C92.8633 35.8731 92.9479 35.5153 92.9479 35.1076C92.9479 34.6955 92.8633 34.3399 92.6942 34.0407C92.525 33.7371 92.2757 33.5029 91.946 33.3381C91.6164 33.1732 91.2109 33.0908 90.7295 33.0908H89.1421V43.8185H85.9219Z" fill="white"/>
<path d="M74.6704 43.8185H71.2095L75.7048 30.4951H79.992L84.4874 43.8185H81.0264L77.8972 33.852H77.7931L74.6704 43.8185ZM74.2085 38.575H81.4427V41.0211H74.2085V38.575Z" fill="white"/>
<path d="M69.2937 30.4951V43.8185H66.119V33.0713H61.1747V43.8185H58V30.4951H69.2937Z" fill="white"/>
<path d="M207.478 24.8416H206.468V19.0315H205.204C204.874 19.0315 204.605 19.0815 204.399 19.1814C204.193 19.2791 204.042 19.4204 203.946 19.605C203.851 19.7897 203.803 20.008 203.803 20.26C203.803 20.5098 203.851 20.7238 203.946 20.9019C204.042 21.0801 204.192 21.2158 204.396 21.3092C204.6 21.4027 204.866 21.4494 205.194 21.4494H206.905V22.3162H205.1C204.585 22.3162 204.156 22.2303 203.813 22.0587C203.471 21.8871 203.215 21.6471 203.043 21.3386C202.874 21.0279 202.789 20.6684 202.789 20.26C202.789 19.8494 202.874 19.4877 203.043 19.1749C203.213 18.8599 203.468 18.6133 203.809 18.4352C204.153 18.257 204.582 18.168 205.096 18.168H207.478V24.8416ZM204.184 21.8306H205.298L203.679 24.8416H202.535L204.184 21.8306Z" fill="white"/>
<path d="M195.894 18.168H196.891V23.0689H196.953L200.348 18.168H201.28V24.8416H200.273V19.9472H200.211L196.822 24.8416H195.894V18.168Z" fill="white"/>
<path d="M194.789 23.952L194.701 26.4187H193.697V24.8416H193.228V23.952H194.789ZM188.868 24.8416V18.168H189.833V23.9683H193.052V18.168H194.02V24.8416H188.868Z" fill="white"/>
<path d="M183.009 24.8416H181.94L184.342 18.168H185.505L187.906 24.8416H186.838L184.951 19.3802H184.899L183.009 24.8416ZM183.188 22.2282H186.655V23.0754H183.188V22.2282Z" fill="white"/>
<path d="M178.761 24.9332C178.313 24.9332 177.913 24.8561 177.561 24.7019C177.212 24.5476 176.935 24.3336 176.73 24.0599C176.528 23.784 176.42 23.4647 176.405 23.1019H177.428C177.441 23.2996 177.507 23.4712 177.627 23.6168C177.748 23.7601 177.907 23.8709 178.102 23.9491C178.298 24.0273 178.515 24.0664 178.754 24.0664C179.017 24.0664 179.249 24.0208 179.451 23.9296C179.656 23.8383 179.815 23.7112 179.93 23.5483C180.045 23.3832 180.103 23.1931 180.103 22.9781C180.103 22.7543 180.045 22.5577 179.93 22.3883C179.817 22.2166 179.651 22.082 179.432 21.9842C179.215 21.8864 178.952 21.8376 178.643 21.8376H178.079V21.0164H178.643C178.891 21.0164 179.108 20.9719 179.295 20.8828C179.484 20.7937 179.632 20.6699 179.738 20.5113C179.845 20.3506 179.898 20.1626 179.898 19.9476C179.898 19.7412 179.851 19.562 179.758 19.4099C179.666 19.2557 179.536 19.1351 179.367 19.0482C179.199 18.9613 179.002 18.9179 178.774 18.9179C178.556 18.9179 178.353 18.9581 178.164 19.0384C177.977 19.1166 177.825 19.2296 177.708 19.3773C177.591 19.5229 177.528 19.6978 177.519 19.902H176.545C176.556 19.5413 176.662 19.2242 176.864 18.9505C177.068 18.6767 177.338 18.4627 177.672 18.3085C178.007 18.1543 178.378 18.0771 178.787 18.0771C179.215 18.0771 179.584 18.1608 179.894 18.3281C180.207 18.4932 180.448 18.7137 180.618 18.9896C180.79 19.2654 180.874 19.5674 180.872 19.8954C180.874 20.2691 180.77 20.5863 180.559 20.8469C180.351 21.1076 180.073 21.2825 179.725 21.3716V21.4237C180.168 21.4911 180.511 21.667 180.755 21.9516C181 22.2362 181.122 22.5892 181.12 23.0107C181.122 23.3778 181.02 23.7069 180.813 23.998C180.609 24.2891 180.33 24.5183 179.976 24.6856C179.622 24.8507 179.217 24.9332 178.761 24.9332Z" fill="white"/>
<path d="M169.671 18.168H170.668V23.0689H170.73L174.125 18.168H175.057V24.8416H174.05V19.9472H173.989L170.6 24.8416H169.671V18.168Z" fill="white"/>
<path d="M162.86 24.8416V18.168H163.867V21.0681H167.194V18.168H168.204V24.8416H167.194V21.9316H163.867V24.8416H162.86Z" fill="white"/>
<path d="M157.001 24.8416H155.932L158.334 18.168H159.497L161.899 24.8416H160.83L158.943 19.3802H158.891L157.001 24.8416ZM157.18 22.2282H160.647V23.0754H157.18V22.2282Z" fill="white"/>
<path d="M156.089 18.168V19.0348H152.935V24.8416H151.928V18.168H156.089Z" fill="white"/>
<path d="M146.06 24.8416V18.168H148.438C148.958 18.168 149.388 18.2625 149.729 18.4515C150.07 18.6405 150.325 18.899 150.495 19.227C150.664 19.5529 150.749 19.92 150.749 20.3284C150.749 20.739 150.663 21.1083 150.491 21.4363C150.322 21.7622 150.065 22.0207 149.722 22.2119C149.381 22.4009 148.952 22.4954 148.435 22.4954H146.799V21.6416H148.344C148.672 21.6416 148.938 21.5851 149.142 21.4722C149.346 21.357 149.496 21.2006 149.592 21.0029C149.687 20.8053 149.735 20.5804 149.735 20.3284C149.735 20.0764 149.687 19.8527 149.592 19.6571C149.496 19.4616 149.345 19.3085 149.139 19.1977C148.935 19.0869 148.665 19.0315 148.331 19.0315H147.066V24.8416H146.06Z" fill="white"/>
<path d="M144.806 21.5052C144.806 22.2177 144.675 22.8303 144.415 23.343C144.154 23.8535 143.796 24.2467 143.342 24.5226C142.891 24.7964 142.377 24.9332 141.801 24.9332C141.223 24.9332 140.707 24.7964 140.253 24.5226C139.801 24.2467 139.445 23.8525 139.184 23.3398C138.924 22.8271 138.793 22.2156 138.793 21.5052C138.793 20.7926 138.924 20.1811 139.184 19.6706C139.445 19.1579 139.801 18.7647 140.253 18.491C140.707 18.2151 141.223 18.0771 141.801 18.0771C142.377 18.0771 142.891 18.2151 143.342 18.491C143.796 18.7647 144.154 19.1579 144.415 19.6706C144.675 20.1811 144.806 20.7926 144.806 21.5052ZM143.808 21.5052C143.808 20.9621 143.72 20.5048 143.544 20.1333C143.371 19.7597 143.132 19.4773 142.828 19.2861C142.526 19.0927 142.183 18.9961 141.801 18.9961C141.417 18.9961 141.073 19.0927 140.771 19.2861C140.469 19.4773 140.23 19.7597 140.055 20.1333C139.881 20.5048 139.794 20.9621 139.794 21.5052C139.794 22.0483 139.881 22.5067 140.055 22.8803C140.23 23.2518 140.469 23.5342 140.771 23.7275C141.073 23.9187 141.417 24.0143 141.801 24.0143C142.183 24.0143 142.526 23.9187 142.828 23.7275C143.132 23.5342 143.371 23.2518 143.544 22.8803C143.72 22.5067 143.808 22.0483 143.808 21.5052Z" fill="white"/>
<path d="M135.108 24.8416H134.098V19.0315H132.834C132.504 19.0315 132.235 19.0815 132.029 19.1814C131.823 19.2791 131.672 19.4204 131.576 19.605C131.48 19.7897 131.433 20.008 131.433 20.26C131.433 20.5098 131.48 20.7238 131.576 20.9019C131.672 21.0801 131.821 21.2158 132.026 21.3092C132.23 21.4027 132.496 21.4494 132.824 21.4494H134.535V22.3162H132.73C132.215 22.3162 131.786 22.2303 131.442 22.0587C131.101 21.8871 130.845 21.6471 130.673 21.3386C130.504 21.0279 130.419 20.6684 130.419 20.26C130.419 19.8494 130.504 19.4877 130.673 19.1749C130.843 18.8599 131.098 18.6133 131.439 18.4352C131.782 18.257 132.211 18.168 132.726 18.168H135.108V24.8416ZM131.814 21.8306H132.928L131.309 24.8416H130.165L131.814 21.8306Z" fill="white"/>
<path d="M124.516 24.8416H123.447L125.848 18.168H127.012L129.413 24.8416H128.344L126.458 19.3802H126.406L124.516 24.8416ZM124.695 22.2282H128.162V23.0754H124.695V22.2282Z" fill="white"/>
<path d="M117.144 24.8416V18.168H118.15V21.0681H121.477V18.168H122.488V24.8416H121.477V21.9316H118.15V24.8416H117.144Z" fill="white"/>
<path d="M110.333 24.8416V18.168H111.34V21.0681H114.667V18.168H115.677V24.8416H114.667V21.9316H111.34V24.8416H110.333Z" fill="white"/>
<path d="M104.803 24.8416V18.168H108.987V19.0348H105.81V21.0681H108.768V21.9316H105.81V23.9748H109.026V24.8416H104.803Z" fill="white"/>
<path d="M98.8013 24.8416V18.168H101.245C101.719 18.168 102.111 18.2462 102.422 18.4026C102.732 18.5568 102.965 18.7665 103.119 19.0315C103.273 19.2944 103.35 19.5909 103.35 19.9211C103.35 20.1992 103.299 20.4338 103.197 20.6249C103.095 20.8139 102.958 20.966 102.787 21.0811C102.617 21.1941 102.43 21.2767 102.226 21.3288V21.394C102.448 21.4048 102.664 21.4765 102.875 21.609C103.087 21.7394 103.263 21.9251 103.402 22.1663C103.541 22.4074 103.611 22.7007 103.611 23.0461C103.611 23.3871 103.531 23.6934 103.37 23.965C103.211 24.2344 102.966 24.4484 102.633 24.6069C102.301 24.7634 101.876 24.8416 101.359 24.8416H98.8013ZM99.8082 23.978H101.262C101.744 23.978 102.089 23.8846 102.298 23.6978C102.506 23.511 102.611 23.2774 102.611 22.9972C102.611 22.7865 102.557 22.5931 102.451 22.4172C102.344 22.2412 102.192 22.1011 101.995 21.9968C101.799 21.8925 101.567 21.8404 101.297 21.8404H99.8082V23.978ZM99.8082 21.0551H101.157C101.383 21.0551 101.586 21.0116 101.767 20.9247C101.949 20.8378 102.094 20.7162 102.2 20.5598C102.309 20.4012 102.363 20.2144 102.363 19.9993C102.363 19.7234 102.266 19.492 102.073 19.3052C101.88 19.1184 101.583 19.025 101.183 19.025H99.8082V21.0551Z" fill="white"/>
<path d="M92.4927 19.0348V18.168H97.6575V19.0348H95.5753V24.8416H94.5717V19.0348H92.4927Z" fill="white"/>
<path d="M91.6193 20.3386H90.6026C90.5635 20.1214 90.4907 19.9302 90.3843 19.7651C90.2778 19.6 90.1475 19.4599 89.9932 19.3447C89.839 19.2296 89.6663 19.1427 89.4751 19.0841C89.2861 19.0254 89.0852 18.9961 88.8723 18.9961C88.4878 18.9961 88.1434 19.0927 87.8393 19.2861C87.5373 19.4794 87.2984 19.7629 87.1224 20.1366C86.9486 20.5102 86.8617 20.9664 86.8617 21.5052C86.8617 22.0483 86.9486 22.5067 87.1224 22.8803C87.2984 23.254 87.5384 23.5364 87.8426 23.7275C88.1467 23.9187 88.4888 24.0143 88.869 24.0143C89.0797 24.0143 89.2796 23.9861 89.4686 23.9296C89.6598 23.8709 89.8325 23.7851 89.9867 23.6721C90.1409 23.5592 90.2713 23.4212 90.3777 23.2583C90.4864 23.0932 90.5613 22.9042 90.6026 22.6913L91.6193 22.6946C91.5649 23.0226 91.4596 23.3246 91.3032 23.6005C91.1489 23.8742 90.9502 24.111 90.7069 24.3108C90.4657 24.5085 90.1898 24.6617 89.8792 24.7703C89.5685 24.8789 89.2296 24.9332 88.8625 24.9332C88.2846 24.9332 87.7698 24.7964 87.3179 24.5226C86.8661 24.2467 86.5098 23.8525 86.2491 23.3398C85.9906 22.8271 85.8613 22.2156 85.8613 21.5052C85.8613 20.7926 85.9917 20.1811 86.2524 19.6706C86.513 19.1579 86.8693 18.7647 87.3212 18.491C87.773 18.2151 88.2868 18.0771 88.8625 18.0771C89.2166 18.0771 89.5468 18.1282 89.8531 18.2303C90.1616 18.3302 90.4386 18.478 90.684 18.6735C90.9295 18.8668 91.1326 19.1036 91.2934 19.3838C91.4542 19.6619 91.5628 19.9802 91.6193 20.3386Z" fill="white"/>
<path d="M80.5464 24.8416V18.168H84.7304V19.0348H81.5533V21.0681H84.5121V21.9316H81.5533V23.9748H84.7695V24.8416H80.5464Z" fill="white"/>
<path d="M79.4368 24.0008L79.3455 26.4155H78.3907V24.8416H77.7814V24.0008H79.4368ZM71.375 18.168H72.3721V23.9683H74.5749V18.168H75.5721V23.9683H77.7684V18.168H78.7622V24.8416H71.375V18.168Z" fill="white"/>
<path d="M65.2661 24.8416V18.168H69.4273V19.0348H66.273V20.8596H67.7655C68.2608 20.8596 68.6811 20.9399 69.0265 21.1007C69.3741 21.2615 69.6391 21.4885 69.8216 21.7817C70.0063 22.075 70.0986 22.4204 70.0986 22.818C70.0986 23.2155 70.0063 23.5664 69.8216 23.8705C69.6391 24.1746 69.3741 24.4125 69.0265 24.5841C68.6811 24.7557 68.2608 24.8416 67.7655 24.8416H65.2661ZM66.273 23.9943H67.7655C68.0522 23.9943 68.2944 23.9378 68.4921 23.8249C68.692 23.7119 68.843 23.5653 68.9451 23.385C69.0493 23.2047 69.1015 23.0113 69.1015 22.8049C69.1015 22.5052 68.9863 22.2477 68.7561 22.0327C68.5258 21.8154 68.1956 21.7068 67.7655 21.7068H66.273V23.9943Z" fill="white"/>
<path d="M64.0121 21.5052C64.0121 22.2177 63.8818 22.8303 63.6211 23.343C63.3604 23.8535 63.003 24.2467 62.549 24.5226C62.0971 24.7964 61.5834 24.9332 61.0077 24.9332C60.4298 24.9332 59.9139 24.7964 59.4598 24.5226C59.008 24.2467 58.6517 23.8525 58.391 23.3398C58.1303 22.8271 58 22.2156 58 21.5052C58 20.7926 58.1303 20.1811 58.391 19.6706C58.6517 19.1579 59.008 18.7647 59.4598 18.491C59.9139 18.2151 60.4298 18.0771 61.0077 18.0771C61.5834 18.0771 62.0971 18.2151 62.549 18.491C63.003 18.7647 63.3604 19.1579 63.6211 19.6706C63.8818 20.1811 64.0121 20.7926 64.0121 21.5052ZM63.015 21.5052C63.015 20.9621 62.927 20.5048 62.751 20.1333C62.5772 19.7597 62.3383 19.4773 62.0341 19.2861C61.7322 19.0927 61.39 18.9961 61.0077 18.9961C60.6232 18.9961 60.2799 19.0927 59.978 19.2861C59.676 19.4773 59.437 19.7597 59.2611 20.1333C59.0873 20.5048 59.0004 20.9621 59.0004 21.5052C59.0004 22.0483 59.0873 22.5067 59.2611 22.8803C59.437 23.2518 59.676 23.5342 59.978 23.7275C60.2799 23.9187 60.6232 24.0143 61.0077 24.0143C61.39 24.0143 61.7322 23.9187 62.0341 23.7275C62.3383 23.5342 62.5772 23.2518 62.751 22.8803C62.927 22.5067 63.015 22.0483 63.015 21.5052Z" fill="white"/>
<path d="M150.23 13.699H149.22V7.88892H147.955C147.625 7.88892 147.357 7.93888 147.151 8.03881C146.944 8.13657 146.793 8.27778 146.698 8.46243C146.602 8.64708 146.554 8.86541 146.554 9.1174C146.554 9.36723 146.602 9.58121 146.698 9.75935C146.793 9.93748 146.943 10.0733 147.147 10.1667C147.351 10.2601 147.618 10.3068 147.946 10.3068H149.656V11.1736H147.851C147.336 11.1736 146.907 11.0878 146.564 10.9161C146.223 10.7445 145.967 10.5045 145.795 10.196C145.626 9.88535 145.541 9.52581 145.541 9.1174C145.541 8.70682 145.626 8.34512 145.795 8.03229C145.964 7.7173 146.22 7.47073 146.561 7.29259C146.904 7.11446 147.333 7.02539 147.848 7.02539H150.23V13.699ZM146.935 10.688H148.05L146.43 13.699H145.287L146.935 10.688Z" fill="white"/>
<path d="M139.637 13.699H138.568L140.97 7.02539H142.133L144.535 13.699H143.466L141.579 8.23759H141.527L139.637 13.699ZM139.816 11.0856H143.284V11.9328H139.816V11.0856Z" fill="white"/>
<path d="M136.91 13.699L134.668 10.7076H133.958V13.699H132.951V7.02539H133.958V9.84407H134.287L136.809 7.02539H138.037L135.369 10.0135L138.138 13.699H136.91Z" fill="white"/>
<path d="M131.745 9.19603H130.728C130.689 8.97879 130.616 8.78762 130.51 8.62252C130.403 8.45742 130.273 8.3173 130.119 8.20216C129.964 8.08702 129.792 8.00013 129.601 7.94147C129.412 7.88282 129.211 7.85349 128.998 7.85349C128.613 7.85349 128.269 7.95016 127.965 8.14351C127.663 8.33685 127.424 8.62035 127.248 8.994C127.074 9.36765 126.987 9.82385 126.987 10.3626C126.987 10.9057 127.074 11.3641 127.248 11.7377C127.424 12.1114 127.664 12.3938 127.968 12.585C128.272 12.7761 128.614 12.8717 128.994 12.8717C129.205 12.8717 129.405 12.8435 129.594 12.787C129.785 12.7283 129.958 12.6425 130.112 12.5296C130.266 12.4166 130.397 12.2787 130.503 12.1157C130.612 11.9506 130.687 11.7616 130.728 11.5487L131.745 11.552C131.69 11.88 131.585 12.182 131.429 12.4579C131.274 12.7316 131.076 12.9684 130.832 13.1683C130.591 13.3659 130.315 13.5191 130.005 13.6277C129.694 13.7363 129.355 13.7906 128.988 13.7906C128.41 13.7906 127.895 13.6538 127.443 13.3801C126.992 13.1042 126.635 12.7099 126.375 12.1972C126.116 11.6845 125.987 11.073 125.987 10.3626C125.987 9.65006 126.117 9.03853 126.378 8.52802C126.639 8.01534 126.995 7.62213 127.447 7.34841C127.899 7.07252 128.412 6.93457 128.988 6.93457C129.342 6.93457 129.672 6.98562 129.979 7.08772C130.287 7.18765 130.564 7.33538 130.81 7.53089C131.055 7.72424 131.258 7.96103 131.419 8.24126C131.58 8.51933 131.688 8.83759 131.745 9.19603Z" fill="white"/>
<path d="M119.345 7.02552H120.342V11.9264H120.404L123.8 7.02552H124.732V13.6991H123.725V8.80471H123.663L120.274 13.6991H119.345V7.02552ZM122.679 5.33105H123.48C123.48 5.69819 123.35 5.99689 123.089 6.22717C122.831 6.45527 122.481 6.56932 122.04 6.56932C121.601 6.56932 121.253 6.45527 120.994 6.22717C120.736 5.99689 120.606 5.69819 120.606 5.33105H121.405C121.405 5.49398 121.452 5.63845 121.548 5.76445C121.644 5.88827 121.808 5.95019 122.04 5.95019C122.268 5.95019 122.431 5.88827 122.529 5.76445C122.629 5.64062 122.679 5.49616 122.679 5.33105Z" fill="white"/>
<path d="M112.494 7.02539H113.491V11.9263H113.553L116.948 7.02539H117.88V13.699H116.873V8.80458H116.811L113.422 13.699H112.494V7.02539Z" fill="white"/>
<path d="M111.288 9.19603H110.271C110.232 8.97879 110.159 8.78762 110.053 8.62252C109.946 8.45742 109.816 8.3173 109.662 8.20216C109.507 8.08702 109.335 8.00013 109.144 7.94147C108.955 7.88282 108.754 7.85349 108.541 7.85349C108.156 7.85349 107.812 7.95016 107.508 8.14351C107.206 8.33685 106.967 8.62035 106.791 8.994C106.617 9.36765 106.53 9.82385 106.53 10.3626C106.53 10.9057 106.617 11.3641 106.791 11.7377C106.967 12.1114 107.207 12.3938 107.511 12.585C107.815 12.7761 108.157 12.8717 108.537 12.8717C108.748 12.8717 108.948 12.8435 109.137 12.787C109.328 12.7283 109.501 12.6425 109.655 12.5296C109.809 12.4166 109.94 12.2787 110.046 12.1157C110.155 11.9506 110.23 11.7616 110.271 11.5487L111.288 11.552C111.233 11.88 111.128 12.182 110.972 12.4579C110.817 12.7316 110.619 12.9684 110.375 13.1683C110.134 13.3659 109.858 13.5191 109.548 13.6277C109.237 13.7363 108.898 13.7906 108.531 13.7906C107.953 13.7906 107.438 13.6538 106.986 13.3801C106.535 13.1042 106.178 12.7099 105.918 12.1972C105.659 11.6845 105.53 11.073 105.53 10.3626C105.53 9.65006 105.66 9.03853 105.921 8.52802C106.182 8.01534 106.538 7.62213 106.99 7.34841C107.441 7.07252 107.955 6.93457 108.531 6.93457C108.885 6.93457 109.215 6.98562 109.522 7.08772C109.83 7.18765 110.107 7.33538 110.352 7.53089C110.598 7.72424 110.801 7.96103 110.962 8.24126C111.123 8.51933 111.231 8.83759 111.288 9.19603Z" fill="white"/>
<path d="M104.539 9.19603H103.522C103.483 8.97879 103.41 8.78762 103.304 8.62252C103.197 8.45742 103.067 8.3173 102.913 8.20216C102.758 8.08702 102.586 8.00013 102.395 7.94147C102.206 7.88282 102.005 7.85349 101.792 7.85349C101.407 7.85349 101.063 7.95016 100.759 8.14351C100.457 8.33685 100.218 8.62035 100.042 8.994C99.868 9.36765 99.7812 9.82385 99.7812 10.3626C99.7812 10.9057 99.868 11.3641 100.042 11.7377C100.218 12.1114 100.458 12.3938 100.762 12.585C101.066 12.7761 101.408 12.8717 101.788 12.8717C101.999 12.8717 102.199 12.8435 102.388 12.787C102.579 12.7283 102.752 12.6425 102.906 12.5296C103.06 12.4166 103.191 12.2787 103.297 12.1157C103.406 11.9506 103.481 11.7616 103.522 11.5487L104.539 11.552C104.484 11.88 104.379 12.182 104.223 12.4579C104.068 12.7316 103.87 12.9684 103.626 13.1683C103.385 13.3659 103.109 13.5191 102.799 13.6277C102.488 13.7363 102.149 13.7906 101.782 13.7906C101.204 13.7906 100.689 13.6538 100.237 13.3801C99.7855 13.1042 99.4292 12.7099 99.1685 12.1972C98.91 11.6845 98.7808 11.073 98.7808 10.3626C98.7808 9.65006 98.9111 9.03853 99.1718 8.52802C99.4325 8.01534 99.7888 7.62213 100.241 7.34841C100.692 7.07252 101.206 6.93457 101.782 6.93457C102.136 6.93457 102.466 6.98562 102.773 7.08772C103.081 7.18765 103.358 7.33538 103.603 7.53089C103.849 7.72424 104.052 7.96103 104.213 8.24126C104.374 8.51933 104.482 8.83759 104.539 9.19603Z" fill="white"/>
<path d="M97.7416 10.3626C97.7416 11.0752 97.6112 11.6878 97.3506 12.2005C97.0899 12.711 96.7325 13.1042 96.2785 13.3801C95.8266 13.6538 95.3129 13.7906 94.7372 13.7906C94.1593 13.7906 93.6434 13.6538 93.1893 13.3801C92.7375 13.1042 92.3812 12.7099 92.1205 12.1972C91.8598 11.6845 91.7295 11.073 91.7295 10.3626C91.7295 9.65006 91.8598 9.03853 92.1205 8.52802C92.3812 8.01534 92.7375 7.62213 93.1893 7.34841C93.6434 7.07252 94.1593 6.93457 94.7372 6.93457C95.3129 6.93457 95.8266 7.07252 96.2785 7.34841C96.7325 7.62213 97.0899 8.01534 97.3506 8.52802C97.6112 9.03853 97.7416 9.65006 97.7416 10.3626ZM96.7445 10.3626C96.7445 9.81951 96.6565 9.36222 96.4805 8.99074C96.3067 8.61709 96.0678 8.33468 95.7636 8.14351C95.4617 7.95016 95.1195 7.85349 94.7372 7.85349C94.3527 7.85349 94.0094 7.95016 93.7075 8.14351C93.4055 8.33468 93.1665 8.61709 92.9906 8.99074C92.8168 9.36222 92.7299 9.81951 92.7299 10.3626C92.7299 10.9057 92.8168 11.3641 92.9906 11.7377C93.1665 12.1092 93.4055 12.3916 93.7075 12.585C94.0094 12.7761 94.3527 12.8717 94.7372 12.8717C95.1195 12.8717 95.4617 12.7761 95.7636 12.585C96.0678 12.3916 96.3067 12.1092 96.4805 11.7377C96.6565 11.3641 96.7445 10.9057 96.7445 10.3626Z" fill="white"/>
<path d="M86.0767 13.699V7.02539H88.4554C88.9746 7.02539 89.4048 7.11989 89.7458 7.30889C90.0869 7.49789 90.3422 7.7564 90.5116 8.08443C90.681 8.41029 90.7658 8.77743 90.7658 9.18584C90.7658 9.59642 90.68 9.96572 90.5083 10.2938C90.3389 10.6196 90.0826 10.8781 89.7393 11.0693C89.3982 11.2583 88.9692 11.3528 88.4522 11.3528H86.8164V10.499H88.3609C88.689 10.499 88.9551 10.4426 89.1593 10.3296C89.3635 10.2145 89.5134 10.0581 89.609 9.86036C89.7046 9.66268 89.7523 9.43783 89.7523 9.18584C89.7523 8.93384 89.7046 8.71008 89.609 8.51457C89.5134 8.31905 89.3624 8.1659 89.156 8.0551C88.9518 7.94431 88.6824 7.88892 88.3479 7.88892H87.0836V13.699H86.0767Z" fill="white"/>
<path d="M80.5464 13.699V7.02539H84.7304V7.89218H81.5533V9.92554H84.5121V10.7891H81.5533V12.8322H84.7695V13.699H80.5464Z" fill="white"/>
<path d="M79.4368 12.8583L79.3455 15.2729H78.3907V13.699H77.7814V12.8583H79.4368ZM71.375 7.02539H72.3721V12.8257H74.5749V7.02539H75.5721V12.8257H77.7684V7.02539H78.7622V13.699H71.375V7.02539Z" fill="white"/>
<path d="M65.2661 13.699V7.02539H69.4273V7.89218H66.273V9.71699H67.7655C68.2608 9.71699 68.6811 9.79736 69.0265 9.95812C69.3741 10.1189 69.6391 10.3459 69.8216 10.6392C70.0063 10.9324 70.0986 11.2778 70.0986 11.6754C70.0986 12.0729 70.0063 12.4238 69.8216 12.7279C69.6391 13.0321 69.3741 13.2699 69.0265 13.4416C68.6811 13.6132 68.2608 13.699 67.7655 13.699H65.2661ZM66.273 12.8517H67.7655C68.0522 12.8517 68.2944 12.7953 68.4921 12.6823C68.692 12.5693 68.843 12.4227 68.9451 12.2424C69.0493 12.0621 69.1015 11.8687 69.1015 11.6624C69.1015 11.3626 68.9863 11.1051 68.7561 10.8901C68.5258 10.6728 68.1956 10.5642 67.7655 10.5642H66.273V12.8517Z" fill="white"/>
<path d="M64.0121 10.3626C64.0121 11.0752 63.8818 11.6878 63.6211 12.2005C63.3604 12.711 63.003 13.1042 62.549 13.3801C62.0971 13.6538 61.5834 13.7906 61.0077 13.7906C60.4298 13.7906 59.9139 13.6538 59.4598 13.3801C59.008 13.1042 58.6517 12.7099 58.391 12.1972C58.1303 11.6845 58 11.073 58 10.3626C58 9.65006 58.1303 9.03853 58.391 8.52802C58.6517 8.01534 59.008 7.62213 59.4598 7.34841C59.9139 7.07252 60.4298 6.93457 61.0077 6.93457C61.5834 6.93457 62.0971 7.07252 62.549 7.34841C63.003 7.62213 63.3604 8.01534 63.6211 8.52802C63.8818 9.03853 64.0121 9.65006 64.0121 10.3626ZM63.015 10.3626C63.015 9.81951 62.927 9.36222 62.751 8.99074C62.5772 8.61709 62.3383 8.33468 62.0341 8.14351C61.7322 7.95016 61.39 7.85349 61.0077 7.85349C60.6232 7.85349 60.2799 7.95016 59.978 8.14351C59.676 8.33468 59.437 8.61709 59.2611 8.99074C59.0873 9.36222 59.0004 9.81951 59.0004 10.3626C59.0004 10.9057 59.0873 11.3641 59.2611 11.7377C59.437 12.1092 59.676 12.3916 59.978 12.585C60.2799 12.7761 60.6232 12.8717 61.0077 12.8717C61.39 12.8717 61.7322 12.7761 62.0341 12.585C62.3383 12.3916 62.5772 12.1092 62.751 11.7377C62.927 11.3641 63.015 10.9057 63.015 10.3626Z" fill="white"/>
</svg>
