<svg width="208" height="42" viewBox="0 0 208 42" fill="none" xmlns="http://www.w3.org/2000/svg">
<path fill-rule="evenodd" clip-rule="evenodd" d="M0 7.64657V0H13.5817L24.3616 10.78V32.0079L0 7.64657ZM34.3534 41.9997H41.9997L41.9997 8.21168L26.9986 23.2128V34.645L34.3534 41.9997Z" fill="#0094CC"/>
<path fill-rule="evenodd" clip-rule="evenodd" d="M42.0007 4.48268L26.9998 19.4838V0H42.0007V4.48268ZM24.3608 7.04921L17.312 0H24.3608V7.04921Z" fill="#E4E4E4"/>
<path fill-rule="evenodd" clip-rule="evenodd" d="M30.6596 41.9992L30.6598 41.9994H0V27.0734H15.6984L30.6244 41.9992H30.6596ZM0 24.4363H13.0613L0 11.375V24.4363Z" fill="#D21A0A"/>
<path d="M196.145 28.4941H199.358V36.1707H199.469L204.712 28.4941H207.484V41.8176H204.263V34.128H204.179L198.87 41.8176H196.145V28.4941Z" fill="#0A0A0A"/>
<path d="M182.78 28.4941H185.994V36.1707H186.105L191.348 28.4941H194.119V41.8176H190.899V34.128H190.815L185.506 41.8176H182.78V28.4941Z" fill="#0A0A0A"/>
<path d="M180.938 33.3218H177.685C177.642 32.9878 177.553 32.6864 177.418 32.4175C177.284 32.1486 177.106 31.9188 176.885 31.7279C176.664 31.5371 176.401 31.3918 176.098 31.2921C175.798 31.188 175.466 31.1359 175.102 31.1359C174.456 31.1359 173.899 31.2942 173.43 31.6108C172.966 31.9274 172.608 32.385 172.357 32.9835C172.11 33.582 171.986 34.3063 171.986 35.1564C171.986 36.0411 172.112 36.7828 172.363 37.3813C172.619 37.9754 172.977 38.4243 173.437 38.7279C173.901 39.0272 174.449 39.1768 175.083 39.1768C175.438 39.1768 175.761 39.1313 176.052 39.0402C176.347 38.9491 176.605 38.8168 176.826 38.6434C177.052 38.4655 177.236 38.2509 177.379 37.9993C177.527 37.7434 177.629 37.455 177.685 37.1341L180.938 37.1536C180.881 37.7434 180.71 38.3246 180.424 38.8971C180.142 39.4696 179.754 39.9922 179.259 40.4649C178.765 40.9333 178.162 41.3063 177.451 41.5839C176.744 41.8614 175.933 42.0002 175.018 42.0002C173.812 42.0002 172.732 41.7357 171.778 41.2066C170.828 40.6731 170.078 39.8968 169.527 38.8776C168.976 37.8583 168.701 36.618 168.701 35.1564C168.701 33.6904 168.98 32.4479 169.54 31.4287C170.099 30.4095 170.856 29.6353 171.81 29.1062C172.765 28.5771 173.834 28.3125 175.018 28.3125C175.824 28.3125 176.57 28.4253 177.256 28.6508C177.941 28.872 178.544 29.1973 179.064 29.6266C179.585 30.0517 180.007 30.5743 180.333 31.1945C180.658 31.8147 180.86 32.5238 180.938 33.3218Z" fill="#0A0A0A"/>
<path d="M167.001 33.3218H163.748C163.705 32.9878 163.616 32.6864 163.482 32.4175C163.347 32.1486 163.169 31.9188 162.948 31.7279C162.727 31.5371 162.465 31.3918 162.161 31.2921C161.862 31.188 161.53 31.1359 161.166 31.1359C160.519 31.1359 159.962 31.2942 159.494 31.6108C159.03 31.9274 158.672 32.385 158.42 32.9835C158.173 33.582 158.049 34.3063 158.049 35.1564C158.049 36.0411 158.175 36.7828 158.427 37.3813C158.683 37.9754 159.04 38.4243 159.5 38.7279C159.964 39.0272 160.513 39.1768 161.146 39.1768C161.502 39.1768 161.825 39.1313 162.115 39.0402C162.41 38.9491 162.668 38.8168 162.89 38.6434C163.115 38.4655 163.299 38.2509 163.443 37.9993C163.59 37.7434 163.692 37.455 163.748 37.1341L167.001 37.1536C166.945 37.7434 166.773 38.3246 166.487 38.8971C166.205 39.4696 165.817 39.9922 165.323 40.4649C164.828 40.9333 164.225 41.3063 163.514 41.5839C162.807 41.8614 161.996 42.0002 161.081 42.0002C159.875 42.0002 158.795 41.7357 157.841 41.2066C156.891 40.6731 156.141 39.8968 155.59 38.8776C155.04 37.8583 154.764 36.618 154.764 35.1564C154.764 33.6904 155.044 32.4479 155.603 31.4287C156.163 30.4095 156.92 29.6353 157.874 29.1062C158.828 28.5771 159.897 28.3125 161.081 28.3125C161.888 28.3125 162.634 28.4253 163.319 28.6508C164.004 28.872 164.607 29.1973 165.128 29.6266C165.648 30.0517 166.071 30.5743 166.396 31.1945C166.721 31.8147 166.923 32.5238 167.001 33.3218Z" fill="#0A0A0A"/>
<path d="M153.027 35.1564C153.027 36.6223 152.745 37.8649 152.181 38.8841C151.617 39.9033 150.854 40.6774 149.891 41.2066C148.933 41.7357 147.857 42.0002 146.665 42.0002C145.468 42.0002 144.39 41.7335 143.431 41.2C142.473 40.6666 141.712 39.8924 141.148 38.8776C140.588 37.8583 140.309 36.618 140.309 35.1564C140.309 33.6904 140.588 32.4479 141.148 31.4287C141.712 30.4095 142.473 29.6353 143.431 29.1062C144.39 28.5771 145.468 28.3125 146.665 28.3125C147.857 28.3125 148.933 28.5771 149.891 29.1062C150.854 29.6353 151.617 30.4095 152.181 31.4287C152.745 32.4479 153.027 33.6904 153.027 35.1564ZM149.735 35.1564C149.735 34.289 149.612 33.556 149.364 32.9575C149.121 32.359 148.77 31.9057 148.31 31.5978C147.855 31.2899 147.306 31.1359 146.665 31.1359C146.027 31.1359 145.478 31.2899 145.019 31.5978C144.559 31.9057 144.205 32.359 143.958 32.9575C143.715 33.556 143.594 34.289 143.594 35.1564C143.594 36.0238 143.715 36.7567 143.958 37.3553C144.205 37.9538 144.559 38.407 145.019 38.7149C145.478 39.0228 146.027 39.1768 146.665 39.1768C147.306 39.1768 147.855 39.0228 148.31 38.7149C148.77 38.407 149.121 37.9538 149.364 37.3553C149.612 36.7567 149.735 36.0238 149.735 35.1564Z" fill="#0A0A0A"/>
<path d="M128.501 41.8176V28.4941H134.005C135.002 28.4941 135.863 28.6893 136.587 29.0796C137.316 29.4656 137.878 30.0056 138.272 30.6995C138.667 31.3891 138.864 32.1915 138.864 33.1066C138.864 34.026 138.663 34.8306 138.259 35.5202C137.86 36.2054 137.29 36.7367 136.548 37.114C135.807 37.4914 134.926 37.68 133.907 37.68H130.511V35.1428H133.309C133.794 35.1428 134.2 35.0583 134.525 34.8891C134.855 34.72 135.104 34.4836 135.273 34.18C135.442 33.8721 135.527 33.5143 135.527 33.1066C135.527 32.6946 135.442 32.3389 135.273 32.0397C135.104 31.7361 134.855 31.5019 134.525 31.3371C134.196 31.1723 133.79 31.0899 133.309 31.0899H131.721V41.8176H128.501Z" fill="#0A0A0A"/>
<path d="M111.201 28.4941H114.415V36.1707H114.526L119.769 28.4941H122.54V41.8176H119.32V34.128H119.236L113.927 41.8176H111.201V28.4941Z" fill="#0A0A0A"/>
<path d="M106.011 41.8176L101.821 36.2878H101.093V41.8176H97.8726V28.4941H101.093V33.6661H101.607L105.731 28.4941H109.758L104.625 34.785L110.025 41.8176H106.011Z" fill="#0A0A0A"/>
<path d="M85.9219 41.8176V28.4941H91.4256C92.4231 28.4941 93.284 28.6893 94.0083 29.0796C94.7369 29.4656 95.2986 30.0056 95.6933 30.6995C96.0879 31.3891 96.2853 32.1915 96.2853 33.1066C96.2853 34.026 96.0836 34.8306 95.6802 35.5202C95.2812 36.2054 94.7109 36.7367 93.9693 37.114C93.2276 37.4914 92.3472 37.68 91.328 37.68H87.9321V35.1428H90.7295C91.2152 35.1428 91.6208 35.0583 91.946 34.8891C92.2757 34.72 92.525 34.4836 92.6942 34.18C92.8633 33.8721 92.9479 33.5143 92.9479 33.1066C92.9479 32.6946 92.8633 32.3389 92.6942 32.0397C92.525 31.7361 92.2757 31.5019 91.946 31.3371C91.6164 31.1723 91.2109 31.0899 90.7295 31.0899H89.1421V41.8176H85.9219Z" fill="#0A0A0A"/>
<path d="M74.6704 41.8176H71.2095L75.7048 28.4941H79.992L84.4874 41.8176H81.0264L77.8972 31.851H77.7931L74.6704 41.8176ZM74.2085 36.5741H81.4427V39.0202H74.2085V36.5741Z" fill="#0A0A0A"/>
<path d="M69.2937 28.4941V41.8176H66.119V31.0703H61.1747V41.8176H58V28.4941H69.2937Z" fill="#0A0A0A"/>
<path d="M207.478 22.8416H206.468V17.0315H205.204C204.874 17.0315 204.605 17.0815 204.399 17.1814C204.193 17.2791 204.042 17.4204 203.946 17.605C203.851 17.7897 203.803 18.008 203.803 18.26C203.803 18.5098 203.851 18.7238 203.946 18.9019C204.042 19.0801 204.192 19.2158 204.396 19.3092C204.6 19.4027 204.866 19.4494 205.194 19.4494H206.905V20.3162H205.1C204.585 20.3162 204.156 20.2303 203.813 20.0587C203.471 19.8871 203.215 19.6471 203.043 19.3386C202.874 19.0279 202.789 18.6684 202.789 18.26C202.789 17.8494 202.874 17.4877 203.043 17.1749C203.213 16.8599 203.468 16.6133 203.809 16.4352C204.153 16.257 204.582 16.168 205.096 16.168H207.478V22.8416ZM204.184 19.8306H205.298L203.679 22.8416H202.535L204.184 19.8306Z" fill="#0A0A0A"/>
<path d="M195.894 16.168H196.891V21.0689H196.953L200.348 16.168H201.28V22.8416H200.273V17.9472H200.211L196.822 22.8416H195.894V16.168Z" fill="#0A0A0A"/>
<path d="M194.789 21.952L194.701 24.4187H193.697V22.8416H193.228V21.952H194.789ZM188.868 22.8416V16.168H189.833V21.9683H193.052V16.168H194.02V22.8416H188.868Z" fill="#0A0A0A"/>
<path d="M183.009 22.8416H181.94L184.342 16.168H185.505L187.906 22.8416H186.838L184.951 17.3802H184.899L183.009 22.8416ZM183.188 20.2282H186.655V21.0754H183.188V20.2282Z" fill="#0A0A0A"/>
<path d="M178.761 22.9342C178.313 22.9342 177.914 22.8571 177.562 22.7028C177.212 22.5486 176.935 22.3346 176.731 22.0609C176.529 21.785 176.42 21.4657 176.405 21.1029H177.428C177.441 21.3006 177.507 21.4722 177.627 21.6177C177.748 21.7611 177.907 21.8719 178.103 21.9501C178.298 22.0283 178.515 22.0674 178.754 22.0674C179.017 22.0674 179.25 22.0218 179.452 21.9306C179.656 21.8393 179.815 21.7122 179.931 21.5493C180.046 21.3842 180.103 21.1941 180.103 20.979C180.103 20.7553 180.046 20.5587 179.931 20.3892C179.818 20.2176 179.651 20.0829 179.432 19.9852C179.215 19.8874 178.952 19.8385 178.643 19.8385H178.08V19.0174H178.643C178.891 19.0174 179.108 18.9728 179.295 18.8838C179.484 18.7947 179.632 18.6709 179.738 18.5123C179.845 18.3515 179.898 18.1636 179.898 17.9486C179.898 17.7422 179.851 17.563 179.758 17.4109C179.667 17.2566 179.536 17.1361 179.367 17.0492C179.2 16.9623 179.002 16.9188 178.774 16.9188C178.557 16.9188 178.353 16.959 178.164 17.0394C177.978 17.1176 177.826 17.2306 177.708 17.3783C177.591 17.5239 177.528 17.6987 177.519 17.9029H176.545C176.556 17.5423 176.662 17.2251 176.864 16.9514C177.068 16.6777 177.338 16.4637 177.672 16.3095C178.007 16.1552 178.378 16.0781 178.787 16.0781C179.215 16.0781 179.584 16.1618 179.895 16.329C180.208 16.4941 180.449 16.7146 180.618 16.9905C180.79 17.2664 180.874 17.5684 180.872 17.8964C180.874 18.2701 180.77 18.5872 180.559 18.8479C180.351 19.1086 180.073 19.2835 179.725 19.3726V19.4247C180.168 19.492 180.512 19.668 180.755 19.9526C181 20.2372 181.122 20.5902 181.12 21.0116C181.122 21.3788 181.02 21.7079 180.814 21.999C180.609 22.2901 180.33 22.5193 179.976 22.6865C179.622 22.8516 179.217 22.9342 178.761 22.9342Z" fill="#0A0A0A"/>
<path d="M169.671 16.168H170.668V21.0689H170.73L174.125 16.168H175.057V22.8416H174.05V17.9472H173.989L170.6 22.8416H169.671V16.168Z" fill="#0A0A0A"/>
<path d="M162.86 22.8416V16.168H163.867V19.0681H167.194V16.168H168.204V22.8416H167.194V19.9316H163.867V22.8416H162.86Z" fill="#0A0A0A"/>
<path d="M157.001 22.8416H155.932L158.334 16.168H159.497L161.899 22.8416H160.83L158.943 17.3802H158.891L157.001 22.8416ZM157.18 20.2282H160.647V21.0754H157.18V20.2282Z" fill="#0A0A0A"/>
<path d="M156.089 16.168V17.0348H152.935V22.8416H151.928V16.168H156.089Z" fill="#0A0A0A"/>
<path d="M146.06 22.8416V16.168H148.438C148.958 16.168 149.388 16.2625 149.729 16.4515C150.07 16.6405 150.325 16.899 150.495 17.227C150.664 17.5529 150.749 17.92 150.749 18.3284C150.749 18.739 150.663 19.1083 150.491 19.4363C150.322 19.7622 150.065 20.0207 149.722 20.2119C149.381 20.4009 148.952 20.4954 148.435 20.4954H146.799V19.6416H148.344C148.672 19.6416 148.938 19.5851 149.142 19.4722C149.346 19.357 149.496 19.2006 149.592 19.0029C149.687 18.8053 149.735 18.5804 149.735 18.3284C149.735 18.0764 149.687 17.8527 149.592 17.6571C149.496 17.4616 149.345 17.3085 149.139 17.1977C148.935 17.0869 148.665 17.0315 148.331 17.0315H147.066V22.8416H146.06Z" fill="#0A0A0A"/>
<path d="M144.806 19.5062C144.806 20.2187 144.675 20.8313 144.415 21.344C144.154 21.8545 143.796 22.2477 143.342 22.5236C142.891 22.7973 142.377 22.9342 141.801 22.9342C141.223 22.9342 140.707 22.7973 140.253 22.5236C139.801 22.2477 139.445 21.8534 139.184 21.3407C138.924 20.8281 138.793 20.2165 138.793 19.5062C138.793 18.7936 138.924 18.1821 139.184 17.6716C139.445 17.1589 139.801 16.7657 140.253 16.492C140.707 16.2161 141.223 16.0781 141.801 16.0781C142.377 16.0781 142.891 16.2161 143.342 16.492C143.796 16.7657 144.154 17.1589 144.415 17.6716C144.675 18.1821 144.806 18.7936 144.806 19.5062ZM143.808 19.5062C143.808 18.9631 143.72 18.5058 143.544 18.1343C143.371 17.7606 143.132 17.4782 142.828 17.2871C142.526 17.0937 142.183 16.997 141.801 16.997C141.417 16.997 141.073 17.0937 140.771 17.2871C140.469 17.4782 140.23 17.7606 140.055 18.1343C139.881 18.5058 139.794 18.9631 139.794 19.5062C139.794 20.0493 139.881 20.5076 140.055 20.8813C140.23 21.2528 140.469 21.5352 140.771 21.7285C141.073 21.9197 141.417 22.0153 141.801 22.0153C142.183 22.0153 142.526 21.9197 142.828 21.7285C143.132 21.5352 143.371 21.2528 143.544 20.8813C143.72 20.5076 143.808 20.0493 143.808 19.5062Z" fill="#0A0A0A"/>
<path d="M135.108 22.8416H134.098V17.0315H132.834C132.504 17.0315 132.235 17.0815 132.029 17.1814C131.823 17.2791 131.672 17.4204 131.576 17.605C131.48 17.7897 131.433 18.008 131.433 18.26C131.433 18.5098 131.48 18.7238 131.576 18.9019C131.672 19.0801 131.821 19.2158 132.026 19.3092C132.23 19.4027 132.496 19.4494 132.824 19.4494H134.535V20.3162H132.73C132.215 20.3162 131.786 20.2303 131.442 20.0587C131.101 19.8871 130.845 19.6471 130.673 19.3386C130.504 19.0279 130.419 18.6684 130.419 18.26C130.419 17.8494 130.504 17.4877 130.673 17.1749C130.843 16.8599 131.098 16.6133 131.439 16.4352C131.782 16.257 132.211 16.168 132.726 16.168H135.108V22.8416ZM131.814 19.8306H132.928L131.309 22.8416H130.165L131.814 19.8306Z" fill="#0A0A0A"/>
<path d="M124.516 22.8416H123.447L125.848 16.168H127.012L129.413 22.8416H128.344L126.458 17.3802H126.406L124.516 22.8416ZM124.695 20.2282H128.162V21.0754H124.695V20.2282Z" fill="#0A0A0A"/>
<path d="M117.144 22.8416V16.168H118.15V19.0681H121.477V16.168H122.488V22.8416H121.477V19.9316H118.15V22.8416H117.144Z" fill="#0A0A0A"/>
<path d="M110.333 22.8416V16.168H111.34V19.0681H114.667V16.168H115.677V22.8416H114.667V19.9316H111.34V22.8416H110.333Z" fill="#0A0A0A"/>
<path d="M104.803 22.8416V16.168H108.987V17.0348H105.81V19.0681H108.768V19.9316H105.81V21.9748H109.026V22.8416H104.803Z" fill="#0A0A0A"/>
<path d="M98.8013 22.8416V16.168H101.245C101.719 16.168 102.111 16.2462 102.422 16.4026C102.732 16.5568 102.965 16.7665 103.119 17.0315C103.273 17.2944 103.35 17.5909 103.35 17.9211C103.35 18.1992 103.299 18.4338 103.197 18.6249C103.095 18.8139 102.958 18.966 102.787 19.0811C102.617 19.1941 102.43 19.2767 102.226 19.3288V19.394C102.448 19.4048 102.664 19.4765 102.875 19.609C103.087 19.7394 103.263 19.9251 103.402 20.1663C103.541 20.4074 103.611 20.7007 103.611 21.0461C103.611 21.3871 103.531 21.6934 103.37 21.965C103.211 22.2344 102.966 22.4484 102.633 22.6069C102.301 22.7634 101.876 22.8416 101.359 22.8416H98.8013ZM99.8082 21.978H101.262C101.744 21.978 102.089 21.8846 102.298 21.6978C102.506 21.511 102.611 21.2774 102.611 20.9972C102.611 20.7865 102.557 20.5931 102.451 20.4172C102.344 20.2412 102.192 20.1011 101.995 19.9968C101.799 19.8925 101.567 19.8404 101.297 19.8404H99.8082V21.978ZM99.8082 19.0551H101.157C101.383 19.0551 101.586 19.0116 101.767 18.9247C101.949 18.8378 102.094 18.7162 102.2 18.5598C102.309 18.4012 102.363 18.2144 102.363 17.9993C102.363 17.7234 102.266 17.492 102.073 17.3052C101.88 17.1184 101.583 17.025 101.183 17.025H99.8082V19.0551Z" fill="#0A0A0A"/>
<path d="M92.4927 17.0348V16.168H97.6575V17.0348H95.5753V22.8416H94.5717V17.0348H92.4927Z" fill="#0A0A0A"/>
<path d="M91.6193 18.3396H90.6026C90.5635 18.1223 90.4907 17.9312 90.3843 17.7661C90.2778 17.601 90.1475 17.4609 89.9932 17.3457C89.839 17.2306 89.6663 17.1437 89.4751 17.085C89.2861 17.0264 89.0852 16.997 88.8723 16.997C88.4878 16.997 88.1434 17.0937 87.8393 17.2871C87.5373 17.4804 87.2984 17.7639 87.1224 18.1376C86.9486 18.5112 86.8617 18.9674 86.8617 19.5062C86.8617 20.0493 86.9486 20.5076 87.1224 20.8813C87.2984 21.2549 87.5384 21.5373 87.8426 21.7285C88.1467 21.9197 88.4888 22.0153 88.869 22.0153C89.0797 22.0153 89.2796 21.987 89.4686 21.9306C89.6598 21.8719 89.8325 21.7861 89.9867 21.6731C90.1409 21.5602 90.2713 21.4222 90.3777 21.2593C90.4864 21.0942 90.5613 20.9052 90.6026 20.6923L91.6193 20.6955C91.5649 21.0236 91.4596 21.3255 91.3032 21.6014C91.1489 21.8752 90.9502 22.1119 90.7069 22.3118C90.4657 22.5095 90.1898 22.6626 89.8792 22.7713C89.5685 22.8799 89.2296 22.9342 88.8625 22.9342C88.2846 22.9342 87.7698 22.7973 87.3179 22.5236C86.8661 22.2477 86.5098 21.8534 86.2491 21.3407C85.9906 20.8281 85.8613 20.2165 85.8613 19.5062C85.8613 18.7936 85.9917 18.1821 86.2524 17.6716C86.513 17.1589 86.8693 16.7657 87.3212 16.492C87.773 16.2161 88.2868 16.0781 88.8625 16.0781C89.2166 16.0781 89.5468 16.1292 89.8531 16.2313C90.1616 16.3312 90.4386 16.4789 90.684 16.6744C90.9295 16.8678 91.1326 17.1046 91.2934 17.3848C91.4542 17.6629 91.5628 17.9811 91.6193 18.3396Z" fill="#0A0A0A"/>
<path d="M80.5464 22.8416V16.168H84.7304V17.0348H81.5533V19.0681H84.5121V19.9316H81.5533V21.9748H84.7695V22.8416H80.5464Z" fill="#0A0A0A"/>
<path d="M79.4368 22.0008L79.3455 24.4155H78.3907V22.8416H77.7814V22.0008H79.4368ZM71.375 16.168H72.3721V21.9683H74.5749V16.168H75.5721V21.9683H77.7684V16.168H78.7622V22.8416H71.375V16.168Z" fill="#0A0A0A"/>
<path d="M65.2661 22.8416V16.168H69.4273V17.0348H66.273V18.8596H67.7655C68.2608 18.8596 68.6811 18.9399 69.0265 19.1007C69.3741 19.2615 69.6391 19.4885 69.8216 19.7817C70.0063 20.075 70.0986 20.4204 70.0986 20.818C70.0986 21.2155 70.0063 21.5664 69.8216 21.8705C69.6391 22.1746 69.3741 22.4125 69.0265 22.5841C68.6811 22.7557 68.2608 22.8416 67.7655 22.8416H65.2661ZM66.273 21.9943H67.7655C68.0522 21.9943 68.2944 21.9378 68.4921 21.8249C68.692 21.7119 68.843 21.5653 68.9451 21.385C69.0493 21.2047 69.1015 21.0113 69.1015 20.8049C69.1015 20.5052 68.9863 20.2477 68.7561 20.0327C68.5258 19.8154 68.1956 19.7068 67.7655 19.7068H66.273V21.9943Z" fill="#0A0A0A"/>
<path d="M64.0121 19.5062C64.0121 20.2187 63.8818 20.8313 63.6211 21.344C63.3604 21.8545 63.003 22.2477 62.549 22.5236C62.0971 22.7973 61.5834 22.9342 61.0077 22.9342C60.4298 22.9342 59.9139 22.7973 59.4598 22.5236C59.008 22.2477 58.6517 21.8534 58.391 21.3407C58.1303 20.8281 58 20.2165 58 19.5062C58 18.7936 58.1303 18.1821 58.391 17.6716C58.6517 17.1589 59.008 16.7657 59.4598 16.492C59.9139 16.2161 60.4298 16.0781 61.0077 16.0781C61.5834 16.0781 62.0971 16.2161 62.549 16.492C63.003 16.7657 63.3604 17.1589 63.6211 17.6716C63.8818 18.1821 64.0121 18.7936 64.0121 19.5062ZM63.015 19.5062C63.015 18.9631 62.927 18.5058 62.751 18.1343C62.5772 17.7606 62.3383 17.4782 62.0341 17.2871C61.7322 17.0937 61.39 16.997 61.0077 16.997C60.6232 16.997 60.2799 17.0937 59.978 17.2871C59.676 17.4782 59.437 17.7606 59.2611 18.1343C59.0873 18.5058 59.0004 18.9631 59.0004 19.5062C59.0004 20.0493 59.0873 20.5076 59.2611 20.8813C59.437 21.2528 59.676 21.5352 59.978 21.7285C60.2799 21.9197 60.6232 22.0153 61.0077 22.0153C61.39 22.0153 61.7322 21.9197 62.0341 21.7285C62.3383 21.5352 62.5772 21.2528 62.751 20.8813C62.927 20.5076 63.015 20.0493 63.015 19.5062Z" fill="#0A0A0A"/>
<path d="M150.23 11.699H149.22V5.88892H147.955C147.625 5.88892 147.357 5.93888 147.151 6.03881C146.944 6.13657 146.793 6.27778 146.698 6.46243C146.602 6.64708 146.554 6.86541 146.554 7.1174C146.554 7.36723 146.602 7.58121 146.698 7.75935C146.793 7.93748 146.943 8.07326 147.147 8.16667C147.351 8.26008 147.618 8.30679 147.946 8.30679H149.656V9.17357H147.851C147.336 9.17357 146.907 9.08776 146.564 8.91615C146.223 8.74453 145.967 8.50448 145.795 8.196C145.626 7.88535 145.541 7.52581 145.541 7.1174C145.541 6.70682 145.626 6.34512 145.795 6.03229C145.964 5.7173 146.22 5.47073 146.561 5.29259C146.904 5.11446 147.333 5.02539 147.848 5.02539H150.23V11.699ZM146.935 8.68804H148.05L146.43 11.699H145.287L146.935 8.68804Z" fill="#0A0A0A"/>
<path d="M139.637 11.699H138.568L140.97 5.02539H142.133L144.535 11.699H143.466L141.579 6.23759H141.527L139.637 11.699ZM139.816 9.08559H143.284V9.93283H139.816V9.08559Z" fill="#0A0A0A"/>
<path d="M136.91 11.699L134.668 8.7076H133.958V11.699H132.951V5.02539H133.958V7.84407H134.287L136.809 5.02539H138.037L135.369 8.01352L138.138 11.699H136.91Z" fill="#0A0A0A"/>
<path d="M131.745 7.19701H130.728C130.689 6.97977 130.616 6.7886 130.51 6.6235C130.403 6.45839 130.273 6.31827 130.119 6.20314C129.964 6.088 129.792 6.00111 129.601 5.94245C129.412 5.8838 129.211 5.85447 128.998 5.85447C128.613 5.85447 128.269 5.95114 127.965 6.14448C127.663 6.33783 127.424 6.62132 127.248 6.99497C127.074 7.36863 126.987 7.82483 126.987 8.36358C126.987 8.90668 127.074 9.36506 127.248 9.73871C127.424 10.1124 127.664 10.3948 127.968 10.5859C128.272 10.7771 128.614 10.8727 128.994 10.8727C129.205 10.8727 129.405 10.8445 129.594 10.788C129.785 10.7293 129.958 10.6435 130.112 10.5305C130.266 10.4176 130.397 10.2796 130.503 10.1167C130.612 9.9516 130.687 9.7626 130.728 9.54971L131.745 9.55297C131.69 9.881 131.585 10.183 131.429 10.4589C131.274 10.7326 131.076 10.9694 130.832 11.1692C130.591 11.3669 130.315 11.5201 130.005 11.6287C129.694 11.7373 129.355 11.7916 128.988 11.7916C128.41 11.7916 127.895 11.6548 127.443 11.381C126.992 11.1051 126.635 10.7109 126.375 10.1982C126.116 9.68548 125.987 9.07396 125.987 8.36358C125.987 7.65104 126.117 7.03951 126.378 6.529C126.639 6.01631 126.995 5.62311 127.447 5.34939C127.899 5.07349 128.412 4.93555 128.988 4.93555C129.342 4.93555 129.672 4.9866 129.979 5.0887C130.287 5.18863 130.564 5.33635 130.81 5.53187C131.055 5.72521 131.258 5.962 131.419 6.24224C131.58 6.52031 131.688 6.83856 131.745 7.19701Z" fill="#0A0A0A"/>
<path d="M119.345 5.0265H120.342V9.92742H120.404L123.8 5.0265H124.732V11.7001H123.725V6.80569H123.663L120.274 11.7001H119.345V5.0265ZM122.679 3.33203H123.48C123.48 3.69917 123.35 3.99787 123.089 4.22814C122.831 4.45624 122.481 4.5703 122.04 4.5703C121.601 4.5703 121.253 4.45624 120.994 4.22814C120.736 3.99787 120.606 3.69917 120.606 3.33203H121.405C121.405 3.49496 121.452 3.63943 121.548 3.76542C121.644 3.88925 121.808 3.95116 122.04 3.95116C122.268 3.95116 122.431 3.88925 122.529 3.76542C122.629 3.6416 122.679 3.49713 122.679 3.33203Z" fill="#0A0A0A"/>
<path d="M112.494 5.02539H113.491V9.92631H113.553L116.948 5.02539H117.88V11.699H116.873V6.80458H116.811L113.422 11.699H112.494V5.02539Z" fill="#0A0A0A"/>
<path d="M111.288 7.19701H110.271C110.232 6.97977 110.159 6.7886 110.053 6.6235C109.946 6.45839 109.816 6.31827 109.662 6.20314C109.507 6.088 109.335 6.00111 109.144 5.94245C108.955 5.8838 108.754 5.85447 108.541 5.85447C108.156 5.85447 107.812 5.95114 107.508 6.14448C107.206 6.33783 106.967 6.62132 106.791 6.99497C106.617 7.36863 106.53 7.82483 106.53 8.36358C106.53 8.90668 106.617 9.36506 106.791 9.73871C106.967 10.1124 107.207 10.3948 107.511 10.5859C107.815 10.7771 108.157 10.8727 108.537 10.8727C108.748 10.8727 108.948 10.8445 109.137 10.788C109.328 10.7293 109.501 10.6435 109.655 10.5305C109.809 10.4176 109.94 10.2796 110.046 10.1167C110.155 9.9516 110.23 9.7626 110.271 9.54971L111.288 9.55297C111.233 9.881 111.128 10.183 110.972 10.4589C110.817 10.7326 110.619 10.9694 110.375 11.1692C110.134 11.3669 109.858 11.5201 109.548 11.6287C109.237 11.7373 108.898 11.7916 108.531 11.7916C107.953 11.7916 107.438 11.6548 106.986 11.381C106.535 11.1051 106.178 10.7109 105.918 10.1982C105.659 9.68548 105.53 9.07396 105.53 8.36358C105.53 7.65104 105.66 7.03951 105.921 6.529C106.182 6.01631 106.538 5.62311 106.99 5.34939C107.441 5.07349 107.955 4.93555 108.531 4.93555C108.885 4.93555 109.215 4.9866 109.522 5.0887C109.83 5.18863 110.107 5.33635 110.352 5.53187C110.598 5.72521 110.801 5.962 110.962 6.24224C111.123 6.52031 111.231 6.83856 111.288 7.19701Z" fill="#0A0A0A"/>
<path d="M104.539 7.19701H103.522C103.483 6.97977 103.41 6.7886 103.304 6.6235C103.197 6.45839 103.067 6.31827 102.913 6.20314C102.758 6.088 102.586 6.00111 102.395 5.94245C102.206 5.8838 102.005 5.85447 101.792 5.85447C101.407 5.85447 101.063 5.95114 100.759 6.14448C100.457 6.33783 100.218 6.62132 100.042 6.99497C99.868 7.36863 99.7812 7.82483 99.7812 8.36358C99.7812 8.90668 99.868 9.36506 100.042 9.73871C100.218 10.1124 100.458 10.3948 100.762 10.5859C101.066 10.7771 101.408 10.8727 101.788 10.8727C101.999 10.8727 102.199 10.8445 102.388 10.788C102.579 10.7293 102.752 10.6435 102.906 10.5305C103.06 10.4176 103.191 10.2796 103.297 10.1167C103.406 9.9516 103.481 9.7626 103.522 9.54971L104.539 9.55297C104.484 9.881 104.379 10.183 104.223 10.4589C104.068 10.7326 103.87 10.9694 103.626 11.1692C103.385 11.3669 103.109 11.5201 102.799 11.6287C102.488 11.7373 102.149 11.7916 101.782 11.7916C101.204 11.7916 100.689 11.6548 100.237 11.381C99.7855 11.1051 99.4292 10.7109 99.1685 10.1982C98.91 9.68548 98.7808 9.07396 98.7808 8.36358C98.7808 7.65104 98.9111 7.03951 99.1718 6.529C99.4325 6.01631 99.7888 5.62311 100.241 5.34939C100.692 5.07349 101.206 4.93555 101.782 4.93555C102.136 4.93555 102.466 4.9866 102.773 5.0887C103.081 5.18863 103.358 5.33635 103.603 5.53187C103.849 5.72521 104.052 5.962 104.213 6.24224C104.374 6.52031 104.482 6.83856 104.539 7.19701Z" fill="#0A0A0A"/>
<path d="M97.7416 8.36358C97.7416 9.07613 97.6112 9.68874 97.3506 10.2014C97.0899 10.7119 96.7325 11.1051 96.2785 11.381C95.8266 11.6548 95.3129 11.7916 94.7372 11.7916C94.1593 11.7916 93.6434 11.6548 93.1893 11.381C92.7375 11.1051 92.3812 10.7109 92.1205 10.1982C91.8598 9.68548 91.7295 9.07396 91.7295 8.36358C91.7295 7.65104 91.8598 7.03951 92.1205 6.529C92.3812 6.01631 92.7375 5.62311 93.1893 5.34939C93.6434 5.07349 94.1593 4.93555 94.7372 4.93555C95.3129 4.93555 95.8266 5.07349 96.2785 5.34939C96.7325 5.62311 97.0899 6.01631 97.3506 6.529C97.6112 7.03951 97.7416 7.65104 97.7416 8.36358ZM96.7445 8.36358C96.7445 7.82048 96.6565 7.3632 96.4805 6.99172C96.3067 6.61807 96.0678 6.33565 95.7636 6.14448C95.4617 5.95114 95.1195 5.85447 94.7372 5.85447C94.3527 5.85447 94.0094 5.95114 93.7075 6.14448C93.4055 6.33565 93.1665 6.61807 92.9906 6.99172C92.8168 7.3632 92.7299 7.82048 92.7299 8.36358C92.7299 8.90668 92.8168 9.36506 92.9906 9.73871C93.1665 10.1102 93.4055 10.3926 93.7075 10.5859C94.0094 10.7771 94.3527 10.8727 94.7372 10.8727C95.1195 10.8727 95.4617 10.7771 95.7636 10.5859C96.0678 10.3926 96.3067 10.1102 96.4805 9.73871C96.6565 9.36506 96.7445 8.90668 96.7445 8.36358Z" fill="#0A0A0A"/>
<path d="M86.0767 11.699V5.02539H88.4554C88.9746 5.02539 89.4048 5.11989 89.7458 5.30889C90.0869 5.49789 90.3422 5.7564 90.5116 6.08443C90.681 6.41029 90.7658 6.77743 90.7658 7.18584C90.7658 7.59642 90.68 7.96572 90.5083 8.29376C90.3389 8.61961 90.0826 8.87813 89.7393 9.0693C89.3982 9.2583 88.9692 9.3528 88.4522 9.3528H86.8164V8.49905H88.3609C88.689 8.49905 88.9551 8.44256 89.1593 8.3296C89.3635 8.21446 89.5134 8.05805 89.609 7.86036C89.7046 7.66268 89.7523 7.43783 89.7523 7.18584C89.7523 6.93384 89.7046 6.71008 89.609 6.51457C89.5134 6.31905 89.3624 6.1659 89.156 6.0551C88.9518 5.94431 88.6824 5.88892 88.3479 5.88892H87.0836V11.699H86.0767Z" fill="#0A0A0A"/>
<path d="M80.5464 11.699V5.02539H84.7304V5.89218H81.5533V7.92554H84.5121V8.78906H81.5533V10.8322H84.7695V11.699H80.5464Z" fill="#0A0A0A"/>
<path d="M79.4368 10.8583L79.3455 13.2729H78.3907V11.699H77.7814V10.8583H79.4368ZM71.375 5.02539H72.3721V10.8257H74.5749V5.02539H75.5721V10.8257H77.7684V5.02539H78.7622V11.699H71.375V5.02539Z" fill="#0A0A0A"/>
<path d="M65.2661 11.699V5.02539H69.4273V5.89218H66.273V7.71699H67.7655C68.2608 7.71699 68.6811 7.79736 69.0265 7.95812C69.3741 8.11888 69.6391 8.34589 69.8216 8.63917C70.0063 8.93244 70.0986 9.27785 70.0986 9.6754C70.0986 10.0729 70.0063 10.4238 69.8216 10.7279C69.6391 11.0321 69.3741 11.2699 69.0265 11.4416C68.6811 11.6132 68.2608 11.699 67.7655 11.699H65.2661ZM66.273 10.8517H67.7655C68.0522 10.8517 68.2944 10.7953 68.4921 10.6823C68.692 10.5693 68.843 10.4227 68.9451 10.2424C69.0493 10.0621 69.1015 9.86874 69.1015 9.66236C69.1015 9.36257 68.9863 9.10514 68.7561 8.89008C68.5258 8.67284 68.1956 8.56422 67.7655 8.56422H66.273V10.8517Z" fill="#0A0A0A"/>
<path d="M64.0121 8.36358C64.0121 9.07613 63.8818 9.68874 63.6211 10.2014C63.3604 10.7119 63.003 11.1051 62.549 11.381C62.0971 11.6548 61.5834 11.7916 61.0077 11.7916C60.4298 11.7916 59.9139 11.6548 59.4598 11.381C59.008 11.1051 58.6517 10.7109 58.391 10.1982C58.1303 9.68548 58 9.07396 58 8.36358C58 7.65104 58.1303 7.03951 58.391 6.529C58.6517 6.01631 59.008 5.62311 59.4598 5.34939C59.9139 5.07349 60.4298 4.93555 61.0077 4.93555C61.5834 4.93555 62.0971 5.07349 62.549 5.34939C63.003 5.62311 63.3604 6.01631 63.6211 6.529C63.8818 7.03951 64.0121 7.65104 64.0121 8.36358ZM63.015 8.36358C63.015 7.82048 62.927 7.3632 62.751 6.99172C62.5772 6.61807 62.3383 6.33565 62.0341 6.14448C61.7322 5.95114 61.39 5.85447 61.0077 5.85447C60.6232 5.85447 60.2799 5.95114 59.978 6.14448C59.676 6.33565 59.437 6.61807 59.2611 6.99172C59.0873 7.3632 59.0004 7.82048 59.0004 8.36358C59.0004 8.90668 59.0873 9.36506 59.2611 9.73871C59.437 10.1102 59.676 10.3926 59.978 10.5859C60.2799 10.7771 60.6232 10.8727 61.0077 10.8727C61.39 10.8727 61.7322 10.7771 62.0341 10.5859C62.3383 10.3926 62.5772 10.1102 62.751 9.73871C62.927 9.36506 63.015 8.90668 63.015 8.36358Z" fill="#0A0A0A"/>
</svg>
