<svg width="93" height="14" viewBox="0 0 93 14" fill="none" xmlns="http://www.w3.org/2000/svg">
<path d="M4.25698 6.09439C4.14782 6.09439 3.99622 6.10045 3.80217 6.11258C3.60812 6.12471 3.43226 6.1429 3.2746 6.16716V12.9165C3.2746 13.062 3.25034 13.159 3.20183 13.2075C3.16544 13.2561 3.04416 13.2803 2.83798 13.2803H0.418421C0.139474 13.2803 0 13.159 0 12.9165V5.11201C0 4.72391 0.0606407 4.41464 0.181922 4.18421C0.303203 3.94164 0.576086 3.77185 1.00057 3.67483C1.12185 3.65057 1.30377 3.62631 1.54634 3.60206C1.7889 3.56567 2.04966 3.54142 2.3286 3.52929C2.61968 3.50503 2.91075 3.48684 3.20183 3.47471C3.4929 3.46258 3.74153 3.45652 3.94771 3.45652C4.83306 3.45652 5.60926 3.54142 6.27631 3.71121C6.94336 3.86888 7.49519 4.14176 7.9318 4.52986C8.38054 4.90583 8.71407 5.40309 8.93237 6.02162C9.15068 6.62803 9.25983 7.37391 9.25983 8.25926V12.9165C9.25983 13.062 9.23558 13.159 9.18706 13.2075C9.15068 13.2561 9.0294 13.2803 8.82322 13.2803H6.36727C6.08832 13.2803 5.94885 13.159 5.94885 12.9165V7.94999C5.94885 7.33146 5.82757 6.87059 5.58501 6.56739C5.35457 6.25206 4.9119 6.09439 4.25698 6.09439Z" fill="#F8F7F5" fill-opacity="0.8"/>
<path d="M20.8783 8.45938C20.8783 10.036 20.4841 11.267 19.6958 12.1524C18.9074 13.0378 17.6886 13.4804 16.0391 13.4804C15.178 13.4804 14.4443 13.3652 13.8379 13.1348C13.2315 12.8922 12.7342 12.5587 12.3461 12.1342C11.9701 11.6976 11.6912 11.17 11.5093 10.5515C11.3395 9.93295 11.2546 9.24164 11.2546 8.47757C11.2546 7.7135 11.3577 7.02219 11.5638 6.40366C11.77 5.78512 12.0732 5.25755 12.4735 4.82094C12.8737 4.38432 13.3709 4.0508 13.9652 3.82036C14.5716 3.5778 15.269 3.45652 16.0573 3.45652C17.6582 3.45652 18.8589 3.90526 19.6594 4.80274C20.472 5.6881 20.8783 6.90698 20.8783 8.45938ZM17.4217 8.49576C17.4217 7.004 16.9669 6.25812 16.0573 6.25812C15.1477 6.25812 14.6929 6.98581 14.6929 8.44118C14.6929 9.24164 14.8081 9.81773 15.0386 10.1694C15.269 10.509 15.6086 10.6788 16.0573 10.6788C16.5061 10.6788 16.8456 10.4908 17.0761 10.1149C17.3065 9.72677 17.4217 9.18707 17.4217 8.49576Z" fill="#F8F7F5" fill-opacity="0.8"/>
<path d="M29.7586 12.7527C29.7707 12.8376 29.7707 12.9104 29.7586 12.971C29.7586 13.0196 29.6858 13.0681 29.5403 13.1166C29.0309 13.2742 28.5337 13.3713 28.0485 13.4077C27.5634 13.4562 27.1147 13.4804 26.7023 13.4804C25.5987 13.4804 24.7982 13.2439 24.3009 12.7709C23.8158 12.2979 23.5733 11.643 23.5733 10.8062V6.0762H22.2998C22.1543 6.0762 22.0633 6.03981 22.0269 5.96704C21.9905 5.88215 21.9723 5.79119 21.9723 5.69416V4.40251C21.9723 4.28123 21.9845 4.2024 22.0087 4.16602C22.0451 4.1175 22.1361 4.07505 22.2816 4.03867L23.5733 3.71121V2.03753C23.5733 1.86773 23.6096 1.75252 23.6824 1.69188C23.7552 1.61911 23.8583 1.56453 23.9917 1.52815L26.4112 0.782265C26.5447 0.74588 26.6477 0.758008 26.7205 0.818648C26.8054 0.867161 26.8479 0.97025 26.8479 1.12792V3.7294H28.8854C29.043 3.7294 29.1279 3.75366 29.1401 3.80217C29.1643 3.85068 29.1765 3.93558 29.1765 4.05686V5.69416C29.1765 5.82757 29.1704 5.9246 29.1583 5.98524C29.1461 6.04588 29.0552 6.0762 28.8854 6.0762H26.8479V9.91475C26.8479 10.218 26.9267 10.4241 27.0844 10.5333C27.242 10.6424 27.4906 10.697 27.8302 10.697C28.0243 10.697 28.2608 10.6849 28.5397 10.6606C28.8308 10.6243 29.0491 10.5939 29.1946 10.5697C29.2917 10.5575 29.3584 10.5636 29.3948 10.5879C29.4433 10.6121 29.4736 10.6728 29.4857 10.7698L29.7586 12.7527Z" fill="#F8F7F5" fill-opacity="0.8"/>
<path d="M40.6754 8.45938C40.6754 9.1143 40.5844 9.74496 40.4025 10.3514C40.2327 10.9578 39.9477 11.4975 39.5474 11.9705C39.1593 12.4313 38.6439 12.8013 38.0011 13.0802C37.3704 13.347 36.5942 13.4804 35.6725 13.4804C34.9691 13.4804 34.2474 13.4198 33.5076 13.2985C32.7799 13.1894 32.1311 12.9953 31.5611 12.7164C31.367 12.6193 31.2518 12.5162 31.2154 12.4071C31.179 12.2979 31.1608 12.1706 31.1608 12.0251V0.400229C31.1608 0.242563 31.1912 0.139473 31.2518 0.0909608C31.3124 0.0303202 31.4337 0 31.6156 0H34.017C34.1868 0 34.302 0.0242564 34.3627 0.0727691C34.4354 0.121281 34.4718 0.230434 34.4718 0.400229V3.67483C34.7265 3.60206 35.0176 3.54748 35.345 3.5111C35.6725 3.46258 36.0363 3.43833 36.4366 3.43833C37.2006 3.43833 37.8495 3.57174 38.3831 3.83856C38.9289 4.10538 39.3655 4.46922 39.693 4.93009C40.0326 5.37883 40.2812 5.91247 40.4389 6.531C40.5965 7.13741 40.6754 7.7802 40.6754 8.45938ZM37.237 8.45938C37.237 7.6953 37.0915 7.13741 36.8004 6.78569C36.5215 6.43398 36.1273 6.25812 35.6179 6.25812C35.5088 6.25812 35.3329 6.27025 35.0903 6.2945C34.8478 6.31876 34.6416 6.36121 34.4718 6.42185V10.5515C34.6416 10.6 34.8235 10.6364 35.0176 10.6606C35.2238 10.6728 35.3754 10.6788 35.4724 10.6788C36.0303 10.6788 36.4608 10.509 36.764 10.1694C37.0794 9.82986 37.237 9.25983 37.237 8.45938Z" fill="#F8F7F5" fill-opacity="0.8"/>
<path d="M51.2234 11.9341C51.2234 12.1039 51.2052 12.2555 51.1688 12.3889C51.1325 12.5102 50.9991 12.6315 50.7686 12.7527C50.4897 12.8861 50.1804 13.0014 49.8408 13.0984C49.5134 13.1954 49.1738 13.2743 48.822 13.3349C48.4703 13.3955 48.1126 13.438 47.7487 13.4622C47.397 13.4865 47.0635 13.4986 46.7481 13.4986C45.9113 13.4986 45.2079 13.4259 44.6378 13.2803C44.0678 13.1226 43.6069 12.9104 43.2552 12.6436C42.9156 12.3646 42.6731 12.0372 42.5275 11.6612C42.382 11.2852 42.3092 10.8789 42.3092 10.4423C42.3092 9.37505 42.6428 8.56853 43.3098 8.02276C43.9769 7.46487 44.8683 7.18592 45.9841 7.18592H47.967V6.93123C47.967 6.84633 47.9549 6.74931 47.9306 6.64016C47.9064 6.531 47.8457 6.42791 47.7487 6.33089C47.6638 6.23386 47.5365 6.15503 47.3667 6.09439C47.209 6.03375 46.9968 6.00343 46.7299 6.00343C46.5602 6.00343 46.3661 6.01556 46.1478 6.03981C45.9295 6.05194 45.6991 6.07013 45.4565 6.09439C45.2139 6.11865 44.9714 6.14897 44.7288 6.18535C44.4984 6.22174 44.2861 6.26418 44.0921 6.3127C43.9223 6.36121 43.8071 6.36121 43.7464 6.3127C43.6858 6.26418 43.6433 6.17322 43.6191 6.03981L43.2734 4.47528C43.237 4.30549 43.237 4.19634 43.2734 4.14782C43.3098 4.08718 43.3765 4.03867 43.4735 4.00229C44.0557 3.80824 44.6439 3.66876 45.2382 3.58386C45.8325 3.48684 46.4753 3.43833 47.1666 3.43833C48.5492 3.43833 49.5679 3.72334 50.2229 4.29336C50.8899 4.85126 51.2234 5.71235 51.2234 6.87666V11.9341ZM47.9488 9.1143H46.8755C46.7421 9.1143 46.6087 9.12642 46.4753 9.15068C46.3418 9.17494 46.2206 9.22345 46.1114 9.29622C46.0023 9.35686 45.9113 9.45388 45.8385 9.58729C45.7658 9.70858 45.7294 9.8723 45.7294 10.0785C45.7294 10.3696 45.8325 10.5818 46.0386 10.7152C46.2569 10.8486 46.542 10.9153 46.8937 10.9153C46.9786 10.9153 47.1362 10.9032 47.3667 10.8789C47.6092 10.8547 47.8033 10.8062 47.9488 10.7334V9.1143Z" fill="#F8F7F5" fill-opacity="0.8"/>
<path d="M62.732 12.0251C62.732 12.1706 62.7138 12.2979 62.6774 12.4071C62.641 12.5162 62.5258 12.6193 62.3318 12.7164C62.0528 12.8498 61.7375 12.965 61.3858 13.062C61.0462 13.159 60.6884 13.2379 60.3124 13.2985C59.9364 13.3591 59.5605 13.4016 59.1845 13.4258C58.8085 13.4622 58.4447 13.4804 58.093 13.4804C57.147 13.4804 56.3586 13.3531 55.728 13.0984C55.1094 12.8316 54.6122 12.4799 54.2362 12.0432C53.8602 11.5945 53.5934 11.0669 53.4358 10.4605C53.2902 9.85411 53.2175 9.20526 53.2175 8.51395C53.2175 7.83478 53.2963 7.19199 53.454 6.58558C53.6237 5.96704 53.8845 5.42734 54.2362 4.96647C54.5879 4.49348 55.0367 4.12357 55.5824 3.85675C56.1282 3.5778 56.7771 3.43833 57.529 3.43833C57.9292 3.43833 58.2567 3.45652 58.5114 3.4929C58.7782 3.51716 59.0814 3.55961 59.421 3.62025V0.400229C59.421 0.242563 59.4513 0.139473 59.512 0.0909608C59.5726 0.0303202 59.6939 0 59.8758 0H62.2772C62.447 0 62.5622 0.0242564 62.6228 0.0727691C62.6956 0.121281 62.732 0.230434 62.732 0.400229V12.0251ZM56.6558 8.56853C56.6558 9.36899 56.8074 9.92082 57.1106 10.224C57.4259 10.5272 57.8625 10.6788 58.4204 10.6788C58.5175 10.6788 58.663 10.6728 58.857 10.6606C59.0632 10.6364 59.2512 10.6 59.421 10.5515V6.40366C59.2027 6.34302 58.9844 6.30663 58.7661 6.2945C58.5478 6.27025 58.384 6.25812 58.2749 6.25812C57.7655 6.25812 57.3653 6.45217 57.0742 6.84027C56.7953 7.22837 56.6558 7.80446 56.6558 8.56853Z" fill="#F8F7F5" fill-opacity="0.8"/>
<path d="M70.4239 12.7164C70.4481 12.8498 70.4421 12.9407 70.4057 12.9892C70.3693 13.0378 70.2662 13.0923 70.0964 13.153C69.9509 13.2015 69.7871 13.2439 69.6052 13.2803C69.4233 13.3288 69.2292 13.3652 69.0231 13.3895C68.829 13.4137 68.6289 13.4319 68.4227 13.444C68.2287 13.4683 68.0468 13.4804 67.877 13.4804C67.4767 13.4804 67.1068 13.438 66.7672 13.3531C66.4398 13.2803 66.1548 13.1348 65.9122 12.9165C65.6818 12.686 65.4998 12.3768 65.3664 11.9887C65.2452 11.6006 65.1845 11.0972 65.1845 10.4787V0.363844C65.1845 0.169794 65.2209 0.0606408 65.2937 0.0363841C65.3786 0.0121281 65.4938 0 65.6393 0H68.0225C68.168 0 68.2772 0.0242564 68.35 0.0727691C68.4227 0.109153 68.4591 0.200114 68.4591 0.345652V9.86018C68.4591 10.1513 68.5016 10.3696 68.5865 10.5151C68.6713 10.6606 68.8715 10.7334 69.1868 10.7334C69.2717 10.7334 69.3869 10.7273 69.5324 10.7152C69.678 10.7031 69.7932 10.691 69.8781 10.6788C70.0115 10.6546 70.0964 10.6606 70.1328 10.697C70.1692 10.7213 70.1934 10.794 70.2056 10.9153L70.4239 12.7164Z" fill="#F8F7F5" fill-opacity="0.8"/>
<path d="M80.2528 11.9341C80.2528 12.1039 80.2346 12.2555 80.1982 12.3889C80.1618 12.5102 80.0284 12.6315 79.798 12.7527C79.519 12.8861 79.2098 13.0014 78.8702 13.0984C78.5427 13.1954 78.2031 13.2743 77.8514 13.3349C77.4997 13.3955 77.1419 13.438 76.7781 13.4622C76.4264 13.4865 76.0928 13.4986 75.7775 13.4986C74.9407 13.4986 74.2372 13.4259 73.6672 13.2803C73.0972 13.1226 72.6363 12.9104 72.2846 12.6436C71.945 12.3646 71.7024 12.0372 71.5569 11.6612C71.4114 11.2852 71.3386 10.8789 71.3386 10.4423C71.3386 9.37505 71.6721 8.56853 72.3392 8.02276C73.0062 7.46487 73.8976 7.18592 75.0134 7.18592H76.9964V6.93123C76.9964 6.84633 76.9842 6.74931 76.96 6.64016C76.9357 6.531 76.8751 6.42791 76.7781 6.33089C76.6932 6.23386 76.5658 6.15503 76.396 6.09439C76.2384 6.03375 76.0261 6.00343 75.7593 6.00343C75.5895 6.00343 75.3955 6.01556 75.1772 6.03981C74.9588 6.05194 74.7284 6.07013 74.4858 6.09439C74.2433 6.11865 74.0007 6.14897 73.7582 6.18535C73.5277 6.22174 73.3155 6.26418 73.1214 6.3127C72.9516 6.36121 72.8364 6.36121 72.7758 6.3127C72.7151 6.26418 72.6727 6.17322 72.6484 6.03981L72.3028 4.47528C72.2664 4.30549 72.2664 4.19634 72.3028 4.14782C72.3392 4.08718 72.4059 4.03867 72.5029 4.00229C73.085 3.80824 73.6733 3.66876 74.2675 3.58386C74.8618 3.48684 75.5046 3.43833 76.1959 3.43833C77.5785 3.43833 78.5973 3.72334 79.2522 4.29336C79.9193 4.85126 80.2528 5.71235 80.2528 6.87666V11.9341ZM76.9782 9.1143H75.9048C75.7714 9.1143 75.638 9.12642 75.5046 9.15068C75.3712 9.17494 75.2499 9.22345 75.1408 9.29622C75.0316 9.35686 74.9407 9.45388 74.8679 9.58729C74.7951 9.70858 74.7587 9.8723 74.7587 10.0785C74.7587 10.3696 74.8618 10.5818 75.068 10.7152C75.2863 10.8486 75.5713 10.9153 75.923 10.9153C76.0079 10.9153 76.1656 10.9032 76.396 10.8789C76.6386 10.8547 76.8326 10.8062 76.9782 10.7334V9.1143Z" fill="#F8F7F5" fill-opacity="0.8"/>
<path d="M92.1252 8.45938C92.1252 9.1143 92.0342 9.74496 91.8523 10.3514C91.6825 10.9578 91.3975 11.4975 90.9973 11.9705C90.6092 12.4313 90.0937 12.8013 89.4509 13.0802C88.8203 13.347 88.0441 13.4804 87.1223 13.4804C86.4189 13.4804 85.6973 13.4198 84.9575 13.2985C84.2298 13.1894 83.5809 12.9953 83.0109 12.7164C82.8168 12.6193 82.7016 12.5162 82.6652 12.4071C82.6288 12.2979 82.6107 12.1706 82.6107 12.0251V0.400229C82.6107 0.242563 82.641 0.139473 82.7016 0.0909608C82.7623 0.0303202 82.8835 0 83.0655 0H85.4668C85.6366 0 85.7518 0.0242564 85.8125 0.0727691C85.8853 0.121281 85.9216 0.230434 85.9216 0.400229V3.67483C86.1763 3.60206 86.4674 3.54748 86.7949 3.5111C87.1223 3.46258 87.4862 3.43833 87.8864 3.43833C88.6505 3.43833 89.2993 3.57174 89.833 3.83856C90.3787 4.10538 90.8153 4.46922 91.1428 4.93009C91.4824 5.37883 91.731 5.91247 91.8887 6.531C92.0463 7.13741 92.1252 7.7802 92.1252 8.45938ZM88.6869 8.45938C88.6869 7.6953 88.5413 7.13741 88.2503 6.78569C87.9713 6.43398 87.5771 6.25812 87.0678 6.25812C86.9586 6.25812 86.7828 6.27025 86.5402 6.2945C86.2976 6.31876 86.0914 6.36121 85.9216 6.42185V10.5515C86.0914 10.6 86.2734 10.6364 86.4674 10.6606C86.6736 10.6728 86.8252 10.6788 86.9222 10.6788C87.4801 10.6788 87.9107 10.509 88.2139 10.1694C88.5292 9.82986 88.6869 9.25983 88.6869 8.45938Z" fill="#F8F7F5" fill-opacity="0.8"/>
</svg>
