<svg width="24" height="24" viewBox="0 0 24 24" fill="none" xmlns="http://www.w3.org/2000/svg">
<path d="M18.5964 12.6902C18.2731 12.2819 18.3656 12.1002 18.5964 11.7352C18.6006 11.731 21.2698 8.04257 21.5448 6.79169L21.5465 6.79086C21.6832 6.33501 21.5465 6 20.8857 6H18.6989C18.1422 6 17.8856 6.28751 17.748 6.60919C17.748 6.60919 16.6347 9.27428 15.0596 11.0018C14.5513 11.501 14.3163 11.661 14.0388 11.661C13.9021 11.661 13.6896 11.501 13.6896 11.0452V6.79086C13.6896 6.24418 13.5337 6 13.0729 6H9.63443C9.28525 6 9.07775 6.25501 9.07775 6.49252C9.07775 7.01087 9.86527 7.13004 9.94694 8.58842V11.7527C9.94694 12.4461 9.8211 12.5736 9.54193 12.5736C8.79857 12.5736 6.99434 9.89764 5.92514 6.83503C5.7093 6.24084 5.49845 6.00083 4.9376 6.00083H2.75003C2.12584 6.00083 2 6.28834 2 6.61002C2 7.17837 2.74336 10.0043 5.45679 13.7378C7.26518 16.2862 9.81194 17.6671 12.1287 17.6671C13.5212 17.6671 13.6912 17.3604 13.6912 16.8329C13.6912 14.3978 13.5654 14.1678 14.2629 14.1678C14.5863 14.1678 15.143 14.3278 16.443 15.557C17.9289 17.0146 18.1731 17.6671 19.0048 17.6671H21.1915C21.8149 17.6671 22.1307 17.3604 21.949 16.7554C21.5332 15.4828 18.7231 12.8652 18.5964 12.6902Z" fill="currentColor"/>
</svg>
